<svg version="1.1" id="Layer_1" xmlns="http://www.w3.org/2000/svg" xmlns:xlink="http://www.w3.org/1999/xlink" x="0px" y="0px" width="100%" viewBox="0 0 1024 1024" enable-background="new 0 0 1024 1024" xml:space="preserve">

<path fill="#02B6FF" opacity="1.000000" stroke="none" d="
M362.044159,816.793579 
	C338.651123,814.460632 321.893768,802.421936 312.926453,780.943665 
	C300.863770,752.051392 304.119080,724.109924 321.994568,698.463135 
	C331.452972,684.892700 345.154907,678.012756 361.995087,678.013428 
	C463.807129,678.017456 565.619202,678.012573 667.431213,677.962585 
	C671.968262,677.960327 676.129089,678.616577 678.795776,682.676941 
	C683.444885,689.755676 679.429321,699.358276 670.535828,699.498474 
	C655.597900,699.733887 648.241028,709.769287 641.536255,720.052795 
	C629.334106,738.767944 631.381409,764.526978 645.571777,781.806213 
	C652.402039,790.123291 661.587769,794.482239 672.301697,795.391907 
	C685.894348,796.545898 699.481812,797.205139 712.370300,791.388794 
	C730.008789,783.428833 740.934265,769.168152 748.747314,752.115845 
	C754.282288,740.035522 756.209045,727.327209 756.190186,714.010498 
	C755.997925,578.039185 756.127625,442.067444 755.838745,306.096466 
	C755.807068,291.189209 759.694458,278.163239 769.190002,265.729401 
	C766.775269,265.729401 765.033447,265.727997 763.291626,265.729614 
	C681.811890,265.805420 600.331787,266.027954 518.852600,265.851746 
	C499.156281,265.809174 486.216888,276.143646 475.925323,291.195343 
	C466.410095,305.111603 461.996063,320.699249 462.000183,337.570435 
	C462.020416,420.053253 462.058533,502.536163 461.840607,585.018433 
	C461.831116,588.604187 460.269470,593.031677 457.862732,595.594299 
	C452.359131,601.454285 443.534088,599.173584 440.588287,591.643005 
	C439.700836,589.374390 439.115967,586.821777 439.115082,584.398987 
	C439.109222,568.739563 439.303375,553.080139 439.690857,537.386353 
	C440.086182,537.904907 440.222595,538.457825 440.359009,539.010803 
	C440.994019,515.372253 441.001709,491.834778 440.959106,468.297394 
	C440.957764,467.544067 440.440491,466.791687 440.163727,466.038849 
	C440.106873,435.221069 440.040771,404.403259 439.997711,373.585480 
	C439.980255,361.090332 439.663940,348.582947 440.098389,336.102539 
	C440.911346,312.745392 446.971527,290.972015 461.991425,272.538971 
	C477.228088,253.839813 497.114532,244.146088 521.318970,244.108475 
	C598.788940,243.988083 676.259155,244.007477 753.729248,243.999527 
	C773.387817,243.997513 793.046509,244.066315 812.704895,244.153961 
	C831.352844,244.237091 848.046814,249.470047 860.953735,263.589966 
	C872.398804,276.110748 879.233704,290.663086 879.028137,308.029999 
	C878.923645,316.858765 879.007080,325.689728 879.005554,334.519714 
	C879.003845,344.502136 875.356262,349.025482 865.645447,351.093048 
	C864.352051,351.368408 863.061890,351.658478 861.049500,351.624207 
	C859.843994,351.209320 859.359192,351.027100 858.874329,351.026764 
	C833.119568,351.007751 807.364685,350.988983 781.610107,351.046936 
	C780.414673,351.049652 779.220886,351.753662 778.026367,352.131042 
	C778.004700,471.773834 777.926880,591.416687 778.021667,711.059326 
	C778.035889,729.031006 775.921265,746.445435 768.064941,762.824158 
	C755.234009,789.574036 734.726501,807.295166 706.040344,815.261230 
	C702.724243,816.182068 699.212708,816.399292 695.052490,816.619507 
	C692.994568,816.197510 691.676025,816.012634 690.357483,816.012451 
	C582.513489,815.999023 474.669464,815.996521 366.825439,816.032776 
	C365.231567,816.033325 363.637909,816.528992 362.044159,816.793579 
M341.055573,786.454651 
	C349.194336,794.373169 359.520142,795.747803 370.107239,795.758423 
	C455.721191,795.843872 541.335266,795.826050 626.949280,795.823914 
	C627.496887,795.823914 628.044556,795.600342 628.580566,795.483704 
	C606.311523,763.567017 606.182129,731.937622 628.862122,700.004761 
	C627.377747,700.004761 626.574036,700.004822 625.770325,700.004822 
	C536.657410,700.005127 447.544525,700.009277 358.431641,699.996826 
	C352.475616,699.996033 347.540924,702.293823 343.197174,706.236755 
	C333.458374,715.076904 329.274506,726.592224 327.623779,739.166626 
	C325.347015,756.509766 328.592010,772.459351 341.055573,786.454651 
M782.073364,287.753967 
	C775.193176,301.611328 779.026184,316.358154 777.825317,330.607056 
	C804.542358,330.607056 830.573914,330.607056 857.480591,330.607056 
	C856.964233,319.137756 857.704163,308.163696 855.740112,297.696991 
	C851.735474,276.355957 829.188293,261.823517 808.163818,266.211548 
	C796.213196,268.705811 787.978699,276.394531 782.073364,287.753967 
z" data-index="1" style="opacity: 1;"></path>
<path fill="#02B6FF" opacity="1.000000" stroke="none" d="
M155.805695,157.734787 
	C155.872559,154.265915 155.883987,151.265640 155.999695,148.269379 
	C156.282074,140.957031 163.228943,136.508484 169.708923,139.910187 
	C203.532852,157.666290 235.090607,178.484665 261.659027,206.414291 
	C287.255737,233.322433 308.611938,263.121521 325.514038,296.138123 
	C333.443451,311.627472 338.447845,328.122833 338.869354,345.498627 
	C339.315765,363.901123 338.239380,382.336334 338.277313,400.756348 
	C338.285370,404.666992 339.390747,409.092773 341.424866,412.398712 
	C355.572876,435.392914 369.949005,458.251068 384.564911,480.951385 
	C392.335297,493.019714 395.389008,505.156647 386.806396,517.897949 
	C380.218414,527.678040 370.042938,531.589294 358.861481,532.952026 
	C345.378601,534.595337 332.101776,532.326782 318.775024,530.410828 
	C301.238251,527.889404 283.847687,527.719055 266.966095,534.832092 
	C249.508545,542.187805 241.053406,555.155029 240.839981,573.865662 
	C240.556824,598.689514 257.178772,617.006531 281.571320,620.165771 
	C299.020966,622.425781 315.475281,619.327026 331.917877,614.245178 
	C346.343048,609.786865 360.911469,606.288879 376.273041,606.943604 
	C399.636017,607.939453 425.391510,622.218018 429.730560,651.820740 
	C430.034241,653.892700 429.762238,656.136719 429.328339,658.210876 
	C428.412964,662.586792 425.841217,665.234802 421.066254,665.296692 
	C416.396790,665.357178 414.509766,662.349426 412.940216,658.574219 
	C410.559753,652.848511 408.791107,646.566589 405.159363,641.723083 
	C396.474670,630.140564 383.470612,626.568909 370.079590,628.719116 
	C352.882477,631.480530 336.115479,636.812744 319.029907,640.403015 
	C296.240723,645.191772 273.858368,644.560974 252.893051,632.826782 
	C235.256393,622.955505 224.902725,607.621521 221.152710,588.083618 
	C217.615631,569.655334 220.225861,551.957031 231.488998,536.467773 
	C242.034241,521.965820 257.307861,514.386902 274.209229,510.104950 
	C292.899323,505.369904 311.613312,507.199982 330.452759,510.279541 
	C339.800995,511.807709 349.569427,511.175568 359.119781,510.803162 
	C361.935516,510.693420 365.002014,508.548096 367.345490,506.602966 
	C371.849915,502.864136 371.999756,499.257172 368.879028,494.367645 
	C355.599335,473.561279 342.495667,452.640442 328.976654,431.991241 
	C326.980621,428.942444 323.458679,426.139679 320.035278,424.898041 
	C293.762909,415.369385 270.141846,401.714569 248.810287,383.464752 
	C206.433273,347.209839 179.590546,301.519409 164.515411,248.426300 
	C159.622437,231.193787 156.468063,213.564758 156.007339,195.594467 
	C155.687988,183.137772 155.850479,170.668732 155.805695,157.734787 
M267.133453,332.302094 
	C266.904724,331.865570 266.708038,331.408417 266.442627,330.995453 
	C252.649399,309.531921 238.769104,288.123352 225.159729,266.543945 
	C223.547607,263.987701 222.552094,260.424469 222.806870,257.460052 
	C223.152222,253.441849 226.155380,250.758255 230.361404,249.941986 
	C236.012039,248.845352 239.971512,251.321854 242.939621,255.908249 
	C262.562012,286.229065 282.215454,316.529816 301.798126,346.876221 
	C307.446655,355.629517 312.895935,364.511322 318.681244,373.723846 
	C320.732483,343.701782 313.547150,316.695465 298.961304,291.275452 
	C288.507721,273.057098 276.312897,256.173920 262.962219,240.052170 
	C243.023361,215.974777 221.076614,194.166718 193.407440,178.879868 
	C188.268463,176.040634 183.062683,173.322311 177.031204,170.089035 
	C176.202240,218.104950 187.102737,261.889526 209.791122,302.892365 
	C233.731339,346.157532 280.378662,387.844513 307.680817,397.562653 
	C294.066772,375.632324 280.804993,354.269440 267.133453,332.302094 
z" data-index="2" style="opacity: 1;"></path>
<path fill="#00B6FF" opacity="1.000000" stroke="none" d="
M525.049255,489.803223 
	C520.123596,488.231110 517.305725,484.913208 516.989075,479.719055 
	C516.578308,472.982574 520.258789,469.018463 527.037537,469.014923 
	C583.348511,468.985565 639.659485,468.991058 695.970459,469.007019 
	C701.762878,469.008636 705.577698,472.273376 706.687500,477.989746 
	C707.608704,482.734039 704.214722,487.223053 696.990295,489.615784 
	C695.331299,489.208160 694.347534,489.019684 693.363770,489.019379 
	C638.683167,489.003204 584.002625,488.996613 529.322021,489.034241 
	C527.897583,489.035217 526.473511,489.535675 525.049255,489.803223 
z" data-index="3" style="opacity: 1;"></path>
<path fill="#03B6FF" opacity="1.000000" stroke="none" d="
M673.105103,541.590210 
	C678.149170,546.287109 679.314941,550.149780 677.338562,555.037903 
	C675.228577,560.256592 670.761597,561.874390 665.746460,561.886230 
	C620.122803,561.994080 574.498901,562.007202 528.875061,561.982971 
	C523.951538,561.980347 519.606140,560.246765 517.390869,555.538818 
	C515.658020,551.856262 515.683716,547.437134 518.973389,545.036621 
	C522.078369,542.770813 526.351990,541.044800 530.151672,540.963806 
	C555.948547,540.413879 581.755737,540.310730 607.560242,540.166809 
	C627.041199,540.058105 646.523193,540.061401 666.004211,540.136353 
	C668.267395,540.145020 670.527466,540.929810 673.105103,541.590210 
z" data-index="4" style="opacity: 1;"></path>
<path fill="#02B6FF" opacity="1.000000" stroke="none" d="
M517.288086,410.243042 
	C516.734741,400.908508 520.404785,397.194977 529.411194,397.186646 
	C574.548645,397.144989 619.686096,397.058624 664.823547,396.993195 
	C673.457947,396.980682 677.754700,400.278229 677.970581,407.047913 
	C678.178955,413.582336 673.190979,418.086395 664.924622,418.129608 
	C628.283691,418.321167 591.641968,418.354126 555.000488,418.451721 
	C546.672852,418.473907 538.345032,418.494720 530.017883,418.572815 
	C524.082642,418.628479 519.822205,416.129547 517.288086,410.243042 
z" data-index="5"></path>
<path fill="#00A4FF" opacity="1.000000" stroke="none" d="
M362.503174,816.878784 
	C363.637909,816.528992 365.231567,816.033325 366.825439,816.032776 
	C474.669464,815.996521 582.513489,815.999023 690.357483,816.012451 
	C691.676025,816.012634 692.994568,816.197510 694.633789,816.551392 
	C673.658447,816.930725 652.362427,817.149902 631.066345,817.162109 
	C546.356812,817.210754 461.647308,817.198669 376.937775,817.192688 
	C372.279236,817.192383 367.620728,817.043701 362.503174,816.878784 
z" data-index="6"></path>
<path fill="#0098FF" opacity="1.000000" stroke="none" d="
M525.507996,489.886658 
	C526.473511,489.535675 527.897583,489.035217 529.322021,489.034241 
	C584.002625,488.996613 638.683167,489.003204 693.363770,489.019379 
	C694.347534,489.019684 695.331299,489.208160 696.629395,489.570770 
	C665.282715,489.889435 633.621826,489.967743 601.960876,489.996185 
	C576.629517,490.018951 551.298096,489.981049 525.507996,489.886658 
z" data-index="7"></path>
<path fill="#019FFF" opacity="1.000000" stroke="none" d="
M778.490479,352.074432 
	C779.220886,351.753662 780.414673,351.049652 781.610107,351.046936 
	C807.364685,350.988983 833.119568,351.007751 858.874329,351.026764 
	C859.359192,351.027100 859.843994,351.209320 860.647461,351.566956 
	C833.628906,351.890778 806.291748,351.954315 778.490479,352.074432 
z" data-index="8"></path>
<path fill="#00A0FF" opacity="1.000000" stroke="none" d="
M440.095825,466.500488 
	C440.440491,466.791687 440.957764,467.544067 440.959106,468.297394 
	C441.001709,491.834778 440.994019,515.372253 440.359009,539.010803 
	C440.222595,538.457825 440.086182,537.904907 439.890259,537.002441 
	C439.896454,513.422668 439.962158,490.192413 440.095825,466.500488 
z" data-index="9"></path>

<path fill="#FEFEFF" opacity="1.000000" stroke="none" d="
M782.244812,287.417145 
	C787.978699,276.394531 796.213196,268.705811 808.163818,266.211548 
	C829.188293,261.823517 851.735474,276.355957 855.740112,297.696991 
	C857.704163,308.163696 856.964233,319.137756 857.480591,330.607056 
	C830.573914,330.607056 804.542358,330.607056 777.825317,330.607056 
	C779.026184,316.358154 775.193176,301.611328 782.244812,287.417145 
z" data-index="11" style="opacity: 1; stroke-width: 2px; stroke: rgb(13, 153, 255); visibility: hidden;"></path>

</svg>