<svg xmlns="http://www.w3.org/2000/svg" width="1254" height="836" viewBox="0 0 1254 836">
<g>
<path d="M 641.48 478.97 C641.09,478.34 641.29,450.30 641.92,416.66 C642.55,383.02 643.16,349.73 643.28,342.67 C643.41,334.87 643.26,330.91 645.16,328.94 C647.31,326.71 652.11,327.03 662.97,327.23 L 678.48 327.50 L 679.12 330.50 C679.48,332.15 679.85,344.52 679.96,358.00 C680.06,370.67 679.82,378.37 680.73,378.51 C681.93,378.69 685.12,365.95 693.69,334.50 C696.25,325.08 696.35,325.03 712.16,324.87 C719.64,324.80 726.32,325.08 726.99,325.49 C727.93,326.07 728.04,334.19 727.48,361.37 C727.09,380.69 726.99,396.27 727.27,396.00 C727.55,395.73 729.59,389.88 731.79,383.00 C737.80,364.26 738.84,360.86 743.69,344.00 C746.15,335.48 748.40,327.72 748.69,326.76 C749.58,323.88 756.19,322.89 773.43,323.07 C782.43,323.17 790.20,322.99 790.71,322.68 C791.21,322.37 804.87,321.64 821.06,321.07 C837.25,320.49 853.65,319.76 857.50,319.45 C862.75,319.03 864.99,319.25 866.47,320.34 C868.43,321.79 868.43,321.88 866.12,333.05 C862.97,348.36 861.28,353.68 859.35,354.42 C858.45,354.76 848.46,355.50 837.15,356.07 C825.84,356.63 816.38,357.29 816.13,357.54 C815.54,358.13 812.05,374.00 812.02,376.24 C812.00,377.85 813.30,377.93 829.76,377.34 C845.41,376.78 847.67,376.90 848.86,378.33 C850.00,379.71 849.66,382.26 846.55,395.37 C844.18,405.34 842.25,411.37 841.08,412.42 C839.71,413.67 836.45,414.18 827.39,414.58 C807.52,415.44 807.23,415.51 806.03,419.81 C804.05,426.88 802.76,436.16 803.64,437.04 C804.14,437.54 811.33,437.48 820.35,436.92 C837.92,435.81 839.03,436.07 838.96,441.37 C838.91,446.05 832.50,469.93 830.87,471.56 C829.74,472.68 822.10,473.25 794.65,474.24 C775.51,474.93 759.21,475.14 758.43,474.70 C757.64,474.26 757.00,472.62 757.00,471.06 C757.00,468.02 760.90,448.73 770.98,402.00 C773.17,391.83 775.41,381.25 775.96,378.50 C776.51,375.75 778.50,366.14 780.39,357.15 C783.82,340.72 783.73,337.85 780.09,348.03 C779.01,351.04 774.93,362.05 771.03,372.50 C767.12,382.95 761.96,397.12 759.56,404.00 C755.46,415.71 752.47,424.11 741.34,455.00 C738.87,461.88 736.37,468.85 735.79,470.50 C735.21,472.15 734.23,474.04 733.62,474.70 C731.92,476.51 697.56,477.71 695.53,476.03 C694.27,474.98 694.00,471.80 694.00,457.71 C694.00,448.34 693.75,440.92 693.45,441.22 C693.14,441.52 690.28,449.42 687.08,458.77 C683.88,468.12 680.97,476.24 680.61,476.82 C679.75,478.21 674.65,478.79 656.84,479.51 C646.36,479.94 641.99,479.79 641.48,478.97 ZM 129.16 500.69 C128.12,499.44 128.47,496.00 131.04,481.83 C132.77,472.30 134.79,461.12 135.53,457.00 C136.27,452.88 138.51,440.73 140.50,430.00 C145.36,403.84 147.91,389.70 153.02,360.50 C154.18,353.90 155.75,347.54 156.51,346.36 C157.79,344.39 159.09,344.16 172.20,343.52 C180.07,343.14 196.85,342.76 209.50,342.67 C230.70,342.51 232.81,342.66 236.49,344.50 C238.68,345.60 241.47,348.00 242.69,349.82 C247.27,356.70 246.94,363.16 240.32,396.00 C234.12,426.80 230.20,435.84 221.05,440.48 C218.27,441.88 216.00,443.43 216.00,443.91 C216.00,444.39 216.66,448.32 217.47,452.64 C218.27,456.96 219.62,465.20 220.47,470.95 C221.32,476.70 222.46,481.86 223.00,482.40 C223.67,483.07 224.00,482.95 224.00,482.07 C224.00,481.34 226.00,476.18 228.45,470.62 C234.35,457.22 245.78,429.41 256.06,403.50 C260.63,391.95 268.24,372.83 272.95,361.00 L 281.52 339.50 L 288.51 338.87 C292.36,338.53 302.53,338.19 311.13,338.12 C323.62,338.02 326.99,338.29 327.95,339.44 C328.87,340.54 329.00,357.93 328.53,413.69 C328.18,453.74 327.69,487.91 327.43,489.64 C326.80,493.76 325.82,493.97 306.73,493.99 L 290.95 494.00 L 289.98 491.43 C289.44,490.02 289.00,486.72 289.00,484.08 C289.00,481.45 288.71,476.53 288.36,473.15 L 287.72 467.00 L 278.88 467.00 C274.48,467.00 272.00,466.90 270.23,467.97 C267.73,469.49 266.66,473.36 263.61,483.20 C261.61,489.63 259.48,495.20 258.88,495.58 C258.28,495.95 242.47,496.91 223.76,497.71 C195.37,498.93 189.52,498.95 188.41,497.84 C187.65,497.08 186.42,491.12 185.54,484.00 C183.75,469.50 181.15,450.72 180.38,446.75 C179.97,444.67 179.26,444.00 177.46,444.00 C176.14,444.00 174.64,444.80 174.11,445.79 C173.19,447.51 169.00,468.19 165.53,488.16 C164.60,493.48 163.32,498.51 162.67,499.33 C160.87,501.65 130.96,502.86 129.16,500.69 ZM 437.01 484.78 C429.81,480.88 428.48,477.60 428.61,464.00 C428.71,453.13 430.51,439.82 435.93,410.00 C436.97,404.23 438.81,393.88 440.01,387.00 C444.31,362.34 447.02,351.82 450.59,345.90 C453.94,340.33 458.75,336.20 464.50,333.93 C468.70,332.27 522.75,330.67 529.91,331.99 C539.25,333.72 542.77,337.34 543.68,346.17 C544.25,351.72 543.60,355.81 535.38,398.50 C532.94,411.15 529.98,426.67 528.81,433.00 C525.08,453.04 521.18,468.01 518.48,472.62 C517.04,475.08 514.02,478.42 511.77,480.05 C504.62,485.23 500.39,485.89 469.66,486.58 L 441.50 487.21 ZM 528.25 484.34 C526.50,483.63 526.69,479.43 528.96,468.19 C531.76,454.38 544.48,388.67 547.00,375.00 C552.66,344.34 554.98,333.60 556.19,332.50 C558.10,330.75 622.09,328.54 627.32,330.04 C629.42,330.64 632.87,332.69 634.97,334.59 C640.85,339.91 641.51,345.61 639.03,369.70 C635.28,406.14 631.27,417.19 619.63,423.17 C615.86,425.11 615.79,425.26 616.44,429.33 C617.51,436.07 620.72,458.71 622.09,469.27 C623.09,476.99 623.10,479.30 622.13,480.27 C620.94,481.47 593.93,482.95 587.83,482.15 C587.16,482.06 586.63,482.01 586.19,481.78 C584.47,480.90 584.12,477.35 582.04,458.50 C579.80,438.18 579.54,433.94 577.74,433.13 C577.08,432.83 576.20,433.00 574.93,433.00 C569.98,433.00 569.69,433.65 566.97,450.85 C564.97,463.49 562.30,477.98 561.38,481.22 C561.09,482.22 559.56,483.13 557.69,483.41 C552.65,484.17 529.63,484.90 528.25,484.34 ZM 440.42 480.63 C442.88,481.74 447.64,481.89 464.00,481.42 C497.98,480.42 504.26,479.76 508.94,476.66 C515.98,472.00 517.54,467.40 524.43,431.00 C525.84,423.58 529.02,406.70 531.51,393.50 C534.00,380.30 536.70,366.08 537.52,361.90 C540.39,347.15 539.29,341.75 532.69,338.34 C529.84,336.87 526.16,336.76 498.33,337.34 C480.40,337.71 465.95,338.44 464.33,339.06 C460.61,340.46 455.28,345.62 453.02,350.00 C450.88,354.16 447.96,367.60 444.45,389.50 C440.67,413.11 438.32,427.68 435.51,444.85 C432.30,464.47 432.21,472.73 435.17,476.48 C436.36,478.00 438.72,479.86 440.42,480.63 ZM 501.81 477.89 C499.44,478.39 485.12,479.09 470.00,479.43 C444.83,480.01 442.27,479.91 439.76,478.30 C435.47,475.55 433.64,470.70 434.41,464.10 C435.12,458.04 441.89,415.35 444.97,397.50 C446.01,391.45 447.15,384.25 447.50,381.50 C448.85,370.90 452.35,355.32 454.25,351.50 C456.71,346.52 459.62,343.28 463.50,341.20 C466.04,339.83 471.55,339.52 499.19,339.18 L 531.87 338.78 L 534.58 341.49 C537.21,344.12 537.27,344.42 536.69,352.85 C536.37,357.61 534.98,367.12 533.61,374.00 C531.23,385.91 524.90,418.89 519.39,448.00 C516.62,462.67 512.66,472.68 508.55,475.37 C507.22,476.25 504.19,477.38 501.81,477.89 ZM 835.32 471.92 C833.74,470.34 834.74,467.49 842.50,451.45 C856.69,422.16 863.95,405.32 876.52,372.50 C879.59,364.50 890.57,331.61 891.97,326.25 C893.72,319.53 894.74,319.23 918.64,318.43 C939.37,317.73 939.80,317.76 940.89,319.79 C941.63,321.17 942.00,331.21 942.00,349.68 C942.00,379.93 943.61,451.13 944.50,460.03 C945.37,468.80 945.02,469.01 927.87,469.70 C917.89,470.11 913.48,470.32 911.21,468.21 C909.37,466.51 908.94,463.29 908.11,457.44 C907.41,452.52 906.66,447.56 906.44,446.40 C906.06,444.40 905.58,444.32 895.77,444.76 C890.02,445.02 885.00,445.72 884.37,446.36 C883.75,446.99 881.56,452.59 879.52,458.81 C876.64,467.54 875.30,470.31 873.65,470.92 C869.88,472.31 836.58,473.18 835.32,471.92 ZM 1030.12 463.10 C1028.59,462.13 1029.01,457.22 1031.53,446.50 C1032.30,443.20 1034.09,435.10 1035.50,428.50 C1037.99,416.82 1041.05,402.78 1050.53,359.50 C1053.06,347.95 1055.57,336.02 1056.09,333.00 C1058.04,321.83 1060.22,314.11 1061.84,312.67 C1063.15,311.50 1069.26,310.96 1090.61,310.09 C1105.51,309.49 1123.39,309.00 1130.34,309.00 C1142.60,309.00 1142.98,309.07 1143.53,311.25 C1144.17,313.81 1137.53,343.87 1135.98,345.42 C1135.43,345.97 1124.89,346.89 1112.56,347.46 C1100.24,348.03 1089.84,348.82 1089.46,349.20 C1089.07,349.59 1087.98,353.82 1087.03,358.60 L 1085.31 367.29 L 1102.16 366.72 C1117.81,366.19 1119.08,366.28 1119.99,367.99 C1121.24,370.31 1114.72,400.71 1112.50,402.93 C1111.37,404.06 1106.94,404.67 1094.75,405.35 C1085.81,405.86 1078.35,406.40 1078.16,406.56 C1077.43,407.18 1073.94,424.40 1074.33,425.42 C1074.61,426.15 1078.07,426.29 1085.12,425.86 C1090.83,425.50 1100.55,425.16 1106.71,425.11 C1113.68,425.04 1117.18,424.95 1118.56,426.61 C1120.00,428.35 1119.13,431.99 1117.45,439.56 C1113.76,456.18 1113.23,458.17 1112.21,459.19 C1111.70,459.70 1093.77,460.99 1072.39,462.05 C1032.92,464.00 1031.38,464.17 1030.58,463.48 C1030.46,463.37 1030.35,463.24 1030.12,463.10 ZM 951.69 467.55 C950.29,466.15 950.00,463.83 950.02,454.18 C950.03,447.76 949.50,414.66 948.83,380.63 C947.70,323.05 947.73,318.67 949.29,317.53 C950.31,316.78 956.70,316.03 965.66,315.61 C977.50,315.05 980.61,315.18 981.72,316.29 C982.79,317.36 983.20,323.09 983.56,341.59 C983.81,354.74 984.29,375.13 984.63,386.90 L 985.23 408.29 L 987.06 403.90 C992.06,391.84 1002.24,362.58 1012.49,330.82 C1016.27,319.11 1018.76,312.92 1019.85,312.49 C1020.76,312.14 1028.93,311.59 1038.01,311.28 C1052.54,310.78 1054.68,310.91 1055.88,312.35 C1056.07,312.58 1056.24,312.79 1056.37,313.01 C1057.39,314.74 1056.16,317.79 1045.23,345.00 C1040.26,357.38 1031.50,379.20 1025.76,393.50 C1020.02,407.80 1011.32,429.57 1006.43,441.87 C1001.55,454.17 997.09,464.86 996.52,465.63 C995.11,467.56 994.00,467.69 972.44,468.51 C955.28,469.16 953.21,469.07 951.69,467.55 ZM 330.40 491.59 C329.41,489.03 330.59,482.52 333.84,472.50 C339.75,454.26 345.30,444.61 371.50,407.00 C381.53,392.60 393.00,375.34 393.00,374.66 C393.00,374.33 383.57,374.34 372.04,374.69 C348.23,375.40 347.41,375.20 348.45,369.06 C351.51,351.14 354.43,337.29 355.37,336.31 C356.49,335.13 404.01,333.00 429.26,333.00 C435.76,333.00 439.28,332.95 440.73,334.66 C442.46,336.71 441.19,341.30 438.46,351.57 C433.48,370.37 435.37,366.84 398.64,425.85 C388.94,441.44 381.00,454.38 381.00,454.61 C381.00,454.84 389.95,454.72 400.88,454.36 C414.74,453.89 420.27,453.50 421.90,455.82 C423.09,457.53 422.18,460.72 420.91,466.42 C418.45,477.43 415.24,489.09 414.44,489.89 C413.86,490.47 405.82,490.82 353.77,492.54 C332.90,493.22 330.99,493.15 330.40,491.59 ZM 225.00 491.32 C225.00,491.93 228.42,492.06 234.15,491.65 C239.19,491.29 246.05,491.00 249.41,491.00 L 255.52 491.00 L 257.85 484.25 C262.54,470.71 265.37,463.47 266.43,462.36 C267.92,460.78 291.68,459.91 292.91,461.39 C293.42,462.00 294.11,465.88 294.45,470.00 C294.79,474.12 295.31,479.86 295.61,482.75 L 296.14 488.00 L 323.00 488.00 L 323.00 449.16 C323.00,427.80 323.30,395.39 323.66,377.14 L 324.32 343.95 L 287.65 344.50 L 285.88 349.00 C284.91,351.48 282.90,356.65 281.42,360.50 C279.94,364.35 275.39,375.15 271.30,384.50 C267.20,393.85 261.01,408.02 257.54,416.00 C245.07,444.63 237.59,461.74 231.35,475.92 C227.86,483.86 225.00,490.79 225.00,491.32 ZM 848.99 449.07 L 839.99 467.19 L 855.24 466.49 C863.64,466.10 870.82,465.48 871.22,465.12 C871.61,464.76 873.74,459.33 875.93,453.06 C878.13,446.79 880.51,441.30 881.21,440.87 C883.35,439.54 892.00,438.86 902.50,439.19 L 912.50 439.50 L 913.21 445.50 C913.59,448.80 914.20,454.60 914.55,458.39 L 915.19 465.29 L 927.30 464.60 C933.96,464.23 939.53,463.80 939.68,463.65 C939.83,463.50 939.50,454.41 938.95,443.44 C938.40,432.47 937.59,401.11 937.14,373.75 C936.70,346.38 936.14,323.82 935.91,323.60 C935.69,323.37 927.20,323.49 917.06,323.85 L 898.62 324.50 L 894.41 338.00 C886.86,362.24 875.38,392.02 863.84,417.30 C860.63,424.34 858.00,430.29 858.00,430.52 C858.00,430.75 853.95,439.10 848.99,449.07 ZM 251.03 489.39 C249.09,489.71 242.90,489.98 237.29,489.99 L 227.08 490.00 L 230.46 482.25 C232.32,477.99 237.30,466.62 241.51,457.00 C245.73,447.38 254.05,428.25 260.01,414.50 C265.96,400.75 273.16,384.33 276.00,378.00 C278.85,371.67 282.73,362.23 284.63,357.00 C286.53,351.78 288.41,347.23 288.80,346.88 C289.18,346.54 296.81,345.98 305.75,345.65 L 322.00 345.05 L 322.00 485.72 L 315.85 486.36 C312.47,486.71 306.91,487.00 303.50,487.00 L 297.29 487.00 L 296.65 479.35 C296.29,475.14 296.00,469.55 296.00,466.92 C296.00,459.07 294.96,458.59 279.60,459.37 C270.49,459.83 266.16,460.45 265.04,461.46 C264.17,462.25 261.46,468.73 259.01,475.85 L 254.57 488.81 ZM 865.99 464.18 C863.52,464.55 857.33,464.89 852.24,464.93 L 842.99 465.00 L 850.87 449.25 C868.93,413.14 887.29,367.52 897.66,333.00 L 899.61 326.50 L 916.96 325.74 C926.51,325.33 934.44,325.11 934.59,325.26 C934.74,325.41 935.39,353.88 936.04,388.52 C936.68,423.16 937.43,454.09 937.70,457.25 L 938.19 463.00 L 927.70 463.00 C921.75,463.00 918.99,463.23 917.57,461.95 C916.12,460.65 916.08,457.78 915.50,451.50 C914.69,442.79 913.36,438.35 911.35,437.58 C908.59,436.52 882.08,438.22 880.23,439.57 C879.28,440.27 876.70,445.93 874.49,452.17 L 870.48 463.50 ZM 1035.00 457.06 C1035.00,457.81 1038.43,457.96 1046.25,457.53 C1052.44,457.19 1068.92,456.50 1082.89,455.99 C1096.85,455.48 1108.39,454.94 1108.53,454.78 C1108.67,454.63 1110.13,448.93 1111.78,442.13 L 1114.77 429.76 L 1107.14 430.35 C1102.94,430.68 1092.36,431.25 1083.64,431.61 L 1067.78 432.28 L 1068.44 427.89 C1070.14,416.58 1073.39,402.93 1074.61,401.91 C1075.36,401.29 1083.18,400.35 1092.23,399.81 C1101.18,399.27 1108.64,398.68 1108.82,398.51 C1108.99,398.34 1109.82,395.12 1110.66,391.35 C1111.49,387.58 1112.78,381.80 1113.51,378.51 C1114.25,375.21 1114.72,372.39 1114.57,372.23 C1114.41,372.07 1106.45,372.36 1096.89,372.87 C1087.33,373.38 1079.34,373.65 1079.15,373.47 C1078.34,372.70 1084.37,345.36 1085.68,343.86 C1086.88,342.48 1090.35,342.11 1106.81,341.55 C1127.19,340.86 1131.81,340.52 1132.72,339.61 C1133.57,338.76 1139.09,314.75 1138.55,314.22 C1137.84,313.51 1065.61,316.09 1064.88,316.85 C1064.17,317.59 1062.28,325.76 1058.50,344.50 C1057.05,351.65 1055.22,360.32 1054.42,363.77 C1053.62,367.22 1051.14,378.70 1048.91,389.27 C1046.68,399.85 1043.76,413.67 1042.41,420.00 C1038.63,437.69 1035.00,455.85 1035.00,457.06 ZM 955.68 447.39 L 956.32 463.28 L 974.41 462.57 C984.36,462.19 992.78,461.56 993.12,461.18 C993.46,460.81 998.81,447.67 1005.02,432.00 C1017.81,399.68 1035.75,355.08 1045.34,331.74 L 1051.82 315.98 L 1037.66 316.62 C1029.87,316.97 1023.21,317.53 1022.86,317.88 C1022.50,318.22 1021.00,322.55 1019.51,327.50 C1011.27,354.97 999.12,388.27 986.87,416.95 L 980.50 431.86 L 979.86 426.18 C979.51,423.06 979.17,407.23 979.11,391.00 C979.04,374.77 978.70,352.39 978.34,341.25 L 977.68 321.00 L 953.67 321.00 L 954.35 376.25 C954.72,406.64 955.32,438.65 955.68,447.39 ZM 773.03 416.75 L 762.36 469.99 L 781.43 469.38 C791.92,469.04 806.58,468.47 814.00,468.13 L 827.50 467.50 L 829.75 458.50 C830.99,453.55 832.42,447.76 832.92,445.64 L 833.84 441.78 L 814.87 442.50 L 795.90 443.23 L 796.45 440.87 C796.75,439.57 798.11,432.67 799.48,425.55 C800.85,418.43 802.56,412.01 803.30,411.27 C804.22,410.35 809.86,409.64 821.48,408.97 C830.75,408.44 838.39,407.89 838.46,407.75 C838.78,407.16 842.94,389.17 843.58,385.62 L 844.27 381.73 L 839.89 382.33 C837.47,382.66 828.86,383.23 820.75,383.60 C809.35,384.12 806.00,383.99 806.00,383.03 C806.00,379.35 810.44,356.11 811.57,353.90 C812.79,351.51 813.57,351.25 821.20,350.66 C825.76,350.30 833.55,350.01 838.50,350.00 C843.45,349.99 849.82,349.70 852.65,349.36 L 857.79 348.75 L 859.94 338.57 C861.12,332.97 862.31,327.51 862.59,326.44 C863.09,324.56 862.65,324.52 847.30,325.24 C838.61,325.65 822.30,326.33 811.06,326.74 L 790.62 327.50 L 787.16 345.50 C785.26,355.40 778.90,387.46 773.03,416.75 ZM 336.00 485.34 C336.00,487.61 336.08,487.63 347.75,487.29 C354.21,487.11 368.95,486.52 380.50,485.98 C392.05,485.44 403.65,485.00 406.28,485.00 C408.12,485.00 409.33,485.06 410.24,484.58 C412.10,483.59 412.77,480.35 415.25,469.74 L 417.76 458.99 L 394.78 459.66 L 371.79 460.32 L 373.80 456.41 C375.83,452.45 393.69,423.53 409.09,399.24 C431.22,364.34 430.33,366.15 434.44,347.87 L 436.72 337.71 L 420.11 338.34 C410.97,338.69 393.49,339.28 381.27,339.64 L 359.03 340.31 L 358.46 343.90 C358.14,345.88 357.01,351.68 355.94,356.78 C354.87,361.88 354.00,366.83 354.00,367.78 C354.00,369.38 355.63,369.45 377.63,368.71 C390.63,368.28 401.49,368.16 401.78,368.44 C402.06,368.73 399.46,373.36 396.00,378.73 C389.63,388.63 386.01,394.06 362.44,429.00 C355.20,439.73 348.04,450.95 346.53,453.94 C343.28,460.36 336.00,482.07 336.00,485.34 ZM 1073.09 454.92 C1054.07,455.63 1038.09,456.45 1037.60,456.75 C1036.49,457.43 1037.27,452.25 1040.56,437.00 C1043.61,422.88 1046.06,411.33 1049.46,395.00 C1050.90,388.12 1052.93,378.67 1053.98,374.00 C1055.03,369.33 1056.82,361.00 1057.96,355.50 C1059.10,350.00 1061.15,340.38 1062.52,334.12 C1063.88,327.85 1065.00,321.74 1065.00,320.52 C1065.00,318.37 1065.39,318.29 1079.75,317.66 C1122.52,315.78 1137.35,315.63 1136.80,317.09 C1136.50,317.86 1135.19,323.05 1133.89,328.62 L 1131.53 338.73 L 1122.61 339.37 C1117.71,339.72 1108.64,340.00 1102.47,340.00 C1088.88,340.00 1085.26,340.64 1083.84,343.30 C1082.38,346.03 1078.00,367.37 1078.00,371.78 L 1078.00 375.31 L 1095.62 374.62 C1109.78,374.07 1113.14,374.19 1112.75,375.22 C1112.32,376.34 1111.45,379.91 1108.07,394.50 L 1107.38 397.50 L 1092.16 398.16 C1074.69,398.91 1072.71,399.65 1070.98,406.08 C1069.88,410.17 1067.40,423.01 1066.28,430.40 L 1065.70 434.30 L 1076.60 433.67 C1082.59,433.32 1093.08,432.74 1099.91,432.37 L 1112.31 431.70 L 1111.66 434.10 C1111.30,435.42 1110.26,440.36 1109.35,445.07 L 1107.68 453.65 ZM 823.29 465.81 C818.55,466.27 764.86,468.53 764.61,468.27 C764.48,468.15 765.20,464.10 766.19,459.27 C767.69,452.01 774.72,416.91 786.98,355.50 C788.07,350.00 789.66,341.93 790.50,337.57 C791.34,333.21 792.18,329.49 792.37,329.30 C792.55,329.12 803.90,328.53 817.60,328.00 C831.29,327.47 846.44,326.86 851.25,326.64 L 860.00 326.25 L 859.97 328.88 C859.93,331.56 856.56,346.78 855.84,347.50 C855.62,347.72 846.02,348.22 834.51,348.61 C810.12,349.44 810.16,349.42 808.22,359.52 C805.35,374.47 803.68,385.01 804.12,385.45 C804.38,385.72 812.89,385.53 823.03,385.03 C833.16,384.53 841.66,384.32 841.91,384.57 C842.28,384.95 840.47,393.14 837.37,405.10 C837.02,406.45 834.40,406.82 820.79,407.42 C803.98,408.16 801.55,408.70 800.52,411.94 C799.53,415.05 794.21,444.46 794.56,444.86 C794.74,445.05 803.12,444.75 813.18,444.18 C823.24,443.61 831.54,443.22 831.61,443.32 C831.69,443.42 830.55,448.45 829.07,454.50 C826.42,465.40 826.37,465.50 823.29,465.81 ZM 987.36 460.18 C984.68,460.56 977.03,461.01 970.34,461.18 L 958.18 461.50 L 957.56 447.50 C956.95,433.92 954.97,323.69 955.32,323.34 C955.42,323.25 960.22,323.04 966.00,322.89 L 976.50 322.61 L 977.11 374.05 C977.81,433.92 977.83,437.79 978.71,438.00 C978.79,438.02 978.89,438.00 979.00,438.00 C979.55,438.00 980.00,437.53 980.00,436.97 C980.00,436.40 982.41,430.66 985.36,424.22 C994.64,403.92 1004.03,379.51 1014.47,348.50 L 1024.58 318.50 L 1036.76 318.22 L 1048.93 317.94 L 1047.58 321.72 C1046.39,325.05 1041.82,336.15 1035.95,350.00 C1032.89,357.21 1020.92,387.01 1013.46,406.00 C1009.68,415.62 1003.35,431.60 999.40,441.50 L 992.21 459.50 ZM 389.49 483.89 C378.49,484.46 362.35,485.22 353.61,485.59 L 337.73 486.25 L 338.45 482.38 C339.58,476.33 344.99,459.98 347.52,455.00 C348.77,452.52 356.67,440.38 365.07,428.00 C390.64,390.35 405.00,368.39 405.00,366.95 C405.00,366.55 401.29,366.39 396.75,366.60 C392.21,366.80 381.07,367.15 371.98,367.37 L 355.46 367.78 L 357.56 357.14 C358.71,351.29 359.95,345.33 360.31,343.91 L 360.96 341.32 L 396.01 340.61 C415.29,340.23 431.79,339.63 432.67,339.30 C434.05,338.77 434.18,339.30 433.60,343.17 C433.23,345.65 431.68,352.15 430.15,357.62 C427.57,366.90 426.32,369.23 412.03,391.54 C383.80,435.62 371.00,457.02 371.00,460.14 C371.00,462.02 371.66,462.06 390.75,461.49 C401.61,461.17 411.74,460.71 413.25,460.48 C414.76,460.24 415.99,460.15 415.98,460.27 C415.82,461.66 410.21,482.13 409.89,482.44 C409.66,482.67 400.48,483.33 389.49,483.89 ZM 485.61 449.68 C486.22,449.03 487.68,443.77 488.85,438.00 C490.02,432.23 491.93,423.00 493.09,417.50 C500.34,383.14 502.98,369.39 502.53,368.22 C501.73,366.14 482.29,366.71 480.12,368.88 C478.45,370.55 476.74,379.68 471.49,415.00 C470.06,424.62 468.25,436.51 467.48,441.40 C466.70,446.30 466.28,450.64 466.53,451.05 C467.26,452.23 484.37,451.00 485.61,449.68 ZM 572.35 403.83 L 571.72 406.16 L 587.11 405.46 C598.75,404.93 602.93,404.38 604.25,403.22 C606.54,401.22 607.69,396.74 610.05,380.69 C613.71,355.83 613.49,355.45 595.64,356.28 C585.08,356.76 583.35,357.09 581.91,358.87 C580.44,360.67 579.25,366.25 573.95,396.00 C573.41,399.02 572.69,402.55 572.35,403.83 ZM 647.40 403.82 L 646.68 474.00 L 653.59 473.99 C657.39,473.99 664.21,473.70 668.74,473.35 C676.90,472.71 677.00,472.67 677.90,469.60 C678.40,467.90 682.27,456.60 686.49,444.50 C690.71,432.40 695.46,418.73 697.04,414.12 C698.63,409.51 700.05,405.61 700.21,405.45 C700.37,405.29 700.37,420.16 700.20,438.49 L 699.90 471.82 L 708.20 471.30 C712.77,471.02 719.65,470.50 723.50,470.14 L 730.50 469.50 L 739.22 445.50 C752.60,408.67 755.32,401.28 764.62,376.50 C769.36,363.85 775.39,347.76 778.01,340.75 L 782.77 328.00 L 771.01 328.00 C760.53,328.00 756.37,327.83 754.14,329.82 C752.48,331.30 751.89,333.99 750.55,338.85 C749.08,344.16 747.24,350.52 746.45,353.00 C738.15,379.28 733.70,392.75 731.18,399.25 C729.53,403.51 728.55,407.00 729.01,407.00 C730.99,407.00 751.00,347.22 753.51,333.80 L 754.20 330.11 L 767.10 329.80 C774.20,329.64 780.00,329.80 780.00,330.18 C780.00,330.55 777.26,337.97 773.91,346.68 C770.56,355.38 766.00,367.45 763.78,373.50 C761.56,379.55 758.25,388.55 756.44,393.50 C752.31,404.72 730.05,466.05 729.48,467.75 C729.19,468.63 726.29,469.00 719.67,469.00 C714.51,469.00 708.12,469.30 705.49,469.66 L 700.70 470.31 L 701.38 439.91 C701.76,423.18 702.34,406.85 702.68,403.62 C703.63,394.40 701.23,396.88 696.91,409.56 C684.92,444.73 675.81,470.58 675.20,471.14 C674.81,471.49 668.48,471.98 661.13,472.23 L 647.76 472.68 L 648.38 440.59 C648.71,422.94 649.28,391.74 649.62,371.25 L 650.25 334.00 L 656.38 333.99 C659.74,333.99 664.86,333.70 667.74,333.35 L 672.98 332.72 L 673.24 376.11 L 673.50 419.50 L 676.35 413.50 C680.48,404.80 687.25,384.04 697.24,349.50 C698.35,345.65 699.78,340.02 700.42,337.00 L 701.58 331.50 L 711.82 331.21 L 722.05 330.93 L 721.49 344.21 C718.90,405.08 718.37,426.96 719.51,425.82 C720.38,424.95 727.00,405.86 727.00,404.22 C727.00,401.50 725.69,403.85 723.33,410.77 L 721.04 417.50 L 721.65 392.50 C721.99,378.75 722.54,359.02 722.88,348.66 C723.22,338.30 723.43,329.75 723.34,329.66 C723.25,329.57 718.06,329.64 711.80,329.81 L 700.43 330.11 L 698.10 339.31 C692.42,361.70 677.94,407.85 675.02,412.85 C674.40,413.93 674.05,400.12 674.03,373.25 L 674.00 332.00 L 661.56 332.00 C654.72,332.00 648.89,332.37 648.61,332.82 C648.34,333.27 647.79,365.22 647.40,403.82 ZM 173.00 414.90 C173.00,416.17 181.04,416.33 194.91,415.35 C203.78,414.72 204.23,414.57 206.56,411.51 C208.49,408.98 209.40,405.60 210.99,395.05 C213.54,378.18 213.55,375.37 211.07,374.04 C208.40,372.61 186.73,372.71 183.53,374.17 C181.65,375.03 180.57,376.71 179.51,380.42 C178.16,385.18 173.00,412.49 173.00,414.90 ZM 603.69 401.84 C603.03,402.39 596.01,403.16 588.08,403.57 C574.86,404.24 573.72,404.16 574.31,402.63 C574.66,401.71 575.64,396.81 576.47,391.73 C579.95,370.58 581.95,360.76 583.07,359.42 C584.89,357.23 608.54,357.37 609.39,359.58 C610.34,362.06 610.12,366.42 608.43,378.92 C606.22,395.16 605.08,400.69 603.69,401.84 ZM 204.41 411.69 C202.21,413.88 201.37,414.00 188.55,414.00 C177.64,414.00 175.00,413.73 175.00,412.61 C175.00,408.04 181.45,378.22 182.76,376.75 C184.08,375.26 186.17,375.00 197.03,375.00 C211.27,375.00 212.48,375.51 211.60,381.17 C208.41,401.80 206.59,409.50 204.41,411.69 ZM 886.56 413.78 L 885.85 416.05 L 900.67 415.78 L 915.50 415.50 L 915.47 408.75 C915.25,362.54 914.88,345.73 914.06,346.55 C913.55,347.07 910.68,353.80 907.69,361.50 C904.70,369.20 898.88,383.60 894.76,393.50 C890.64,403.40 886.95,412.52 886.56,413.78 ZM 272.75 438.75 C272.19,441.00 272.19,441.00 285.59,441.00 L 299.00 441.00 L 299.01 418.25 C299.01,405.74 299.30,391.79 299.65,387.25 C300.21,380.15 300.08,379.00 298.73,379.00 C297.80,379.00 296.65,380.53 295.92,382.75 C295.24,384.81 289.88,397.75 284.00,411.50 C278.13,425.25 273.06,437.51 272.75,438.75 ZM 532.00 478.03 C532.00,479.15 537.12,479.25 548.77,478.34 C556.11,477.77 557.08,477.46 557.46,475.60 C557.69,474.45 559.51,464.27 561.50,453.00 C563.50,441.73 565.67,431.38 566.33,430.00 C567.41,427.72 568.23,427.45 575.51,426.94 C580.52,426.60 583.96,426.78 584.72,427.45 C585.48,428.11 586.53,435.38 587.48,446.51 C588.32,456.40 589.28,467.38 589.60,470.90 L 590.19 477.29 L 603.80 476.61 C611.28,476.24 617.49,475.83 617.60,475.71 C618.04,475.24 611.73,429.78 610.44,424.13 C610.15,422.83 609.69,421.98 609.42,422.25 C608.84,422.83 610.94,439.31 615.05,466.50 C615.55,469.80 615.97,473.06 615.98,473.75 C615.99,474.68 612.95,475.00 604.02,475.00 C597.67,475.00 594.52,475.42 592.83,474.05 C590.76,472.37 590.87,468.02 590.03,457.00 C588.01,430.69 587.78,428.48 586.86,426.75 C586.08,425.28 584.48,425.00 576.96,425.00 C566.26,425.00 564.71,426.03 563.17,434.16 C562.61,437.10 561.19,444.90 559.99,451.50 C558.80,458.10 557.29,466.42 556.63,470.00 L 555.43 476.50 L 544.71 477.00 C538.82,477.27 534.00,477.14 534.00,476.69 C534.00,476.25 534.44,474.00 534.97,471.69 C535.50,469.39 538.01,456.70 540.53,443.50 C543.05,430.30 545.98,415.00 547.04,409.50 C548.10,404.00 550.11,393.42 551.52,386.00 C552.92,378.58 554.93,368.00 555.98,362.50 C557.03,357.00 558.44,349.24 559.11,345.25 C559.77,341.26 560.36,337.98 560.41,337.97 C562.25,337.28 621.82,336.39 624.56,337.01 C626.98,337.55 629.61,339.14 631.39,341.12 L 634.29 344.35 L 633.68 359.43 C633.04,375.36 629.17,401.27 626.46,407.74 C624.41,412.66 620.46,416.78 615.50,419.20 C611.54,421.12 611.53,421.14 614.76,420.59 C622.40,419.31 627.83,412.16 630.41,400.00 C632.66,389.36 635.02,370.38 635.70,357.44 C636.34,345.17 635.12,340.62 630.37,337.51 C626.53,334.99 620.38,334.69 588.64,335.49 L 559.05 336.23 L 558.43 339.86 C557.79,343.70 550.77,381.17 546.42,404.00 C545.00,411.42 542.95,422.23 541.85,428.00 C539.69,439.38 537.19,451.92 534.02,467.28 C532.91,472.66 532.00,477.49 532.00,478.03 ZM 134.00 495.60 C134.00,495.82 139.62,496.00 146.50,496.00 C154.71,496.00 159.00,495.63 159.00,494.93 C159.00,494.34 160.62,485.23 162.61,474.68 C164.59,464.13 166.81,452.21 167.54,448.19 C168.26,444.17 169.39,440.23 170.05,439.44 C171.60,437.58 184.30,437.42 185.75,439.25 C186.79,440.55 187.36,444.36 191.13,474.88 L 193.39 493.26 L 200.85 492.63 C204.95,492.28 210.64,492.00 213.49,492.00 L 218.68 492.00 L 217.43 484.75 C216.74,480.76 214.94,469.29 213.41,459.25 C211.88,449.21 210.23,441.00 209.74,441.00 C209.25,441.00 209.09,442.24 209.40,443.75 C209.71,445.26 210.88,452.80 212.00,460.50 C213.11,468.20 214.64,478.23 215.38,482.78 L 216.73 491.06 L 205.62 490.78 L 194.50 490.50 L 193.75 483.50 C193.33,479.65 192.09,469.72 191.00,461.42 C189.90,453.13 189.00,444.95 189.00,443.24 C189.00,438.19 186.92,437.00 178.05,437.00 C172.01,437.00 169.93,437.37 168.87,438.65 C168.12,439.56 165.21,452.27 162.42,466.90 L 157.34 493.50 L 147.00 494.24 C141.31,494.65 136.45,494.78 136.20,494.53 C135.95,494.28 136.71,489.00 137.88,482.79 C139.96,471.83 145.70,439.75 151.99,404.00 C153.69,394.38 155.51,384.48 156.05,382.00 C156.58,379.52 157.93,372.10 159.05,365.50 C160.16,358.90 161.29,352.78 161.56,351.91 C161.98,350.51 166.08,350.22 194.93,349.61 C231.09,348.83 232.47,349.00 236.95,354.63 C239.07,357.30 239.19,358.16 238.67,367.00 C238.10,376.62 231.64,410.06 228.04,422.01 C225.90,429.16 222.00,433.81 216.00,436.41 C212.72,437.83 212.67,437.92 215.12,437.96 C217.73,438.00 221.97,435.29 225.23,431.51 C227.95,428.34 230.68,420.21 233.51,406.85 C241.31,369.95 242.40,359.53 239.04,354.19 C234.74,347.36 229.51,346.87 179.34,348.60 L 160.18 349.26 L 159.03 355.88 C158.39,359.52 156.82,368.35 155.52,375.50 C154.22,382.65 152.19,393.90 151.01,400.50 C149.83,407.10 148.00,417.23 146.95,423.00 C142.06,449.91 134.00,495.12 134.00,495.60 ZM 913.76 413.52 C913.62,413.64 907.70,414.04 900.62,414.42 C888.49,415.07 887.77,415.01 888.29,413.31 C888.59,412.31 892.16,403.62 896.21,394.00 C900.25,384.38 905.80,370.69 908.53,363.59 L 913.50 350.69 L 913.76 382.00 C913.91,399.22 913.91,413.40 913.76,413.52 ZM 599.88 396.22 C600.76,394.58 605.00,369.19 605.00,365.58 C605.00,364.26 603.53,364.00 596.04,364.00 L 587.08 364.00 L 586.06 367.75 C584.55,373.32 581.00,392.84 581.00,395.60 C581.00,397.95 581.17,398.00 589.96,398.00 C597.54,398.00 599.08,397.72 599.88,396.22 ZM 287.59 439.01 C282.59,439.02 277.47,439.30 276.21,439.64 L 273.92 440.25 L 276.35 433.88 C277.68,430.37 281.68,420.75 285.23,412.50 C288.78,404.25 292.95,394.46 294.50,390.74 C296.04,387.02 297.44,384.11 297.60,384.26 C297.76,384.42 297.62,396.80 297.29,411.78 L 296.69 439.00 ZM 200.78 406.75 C202.23,404.98 206.39,383.45 205.65,381.52 C205.13,380.19 203.50,379.97 195.77,380.21 L 186.50 380.50 L 185.38 385.50 C184.77,388.25 183.71,393.65 183.04,397.50 C182.37,401.35 181.61,405.29 181.35,406.25 C180.91,407.83 181.80,408.00 190.31,408.00 C196.65,408.00 200.09,407.59 200.78,406.75 ZM 459.34 457.46 C459.83,458.71 461.77,458.98 469.72,458.91 C485.66,458.77 489.06,458.04 491.62,454.24 C492.83,452.45 494.10,448.62 494.45,445.74 C495.86,434.05 497.23,427.00 498.09,427.00 C499.42,427.00 499.18,433.62 497.61,440.29 C496.64,444.38 496.57,445.98 497.37,445.71 C498.73,445.26 499.86,439.35 499.94,432.29 C499.99,428.13 499.61,426.86 498.08,426.04 C496.35,425.12 496.05,425.53 495.04,430.26 C494.42,433.14 493.45,438.88 492.88,443.00 C491.61,452.17 490.25,455.21 487.00,456.11 C483.24,457.15 461.20,457.14 460.56,456.09 C460.06,455.28 462.17,441.34 471.68,382.54 C473.68,370.14 474.91,365.09 476.24,363.76 C477.85,362.15 479.63,361.98 492.17,362.22 C504.17,362.46 506.45,362.75 507.35,364.20 C508.52,366.04 506.53,380.23 502.92,395.83 C501.87,400.41 501.01,404.91 501.03,405.83 C501.11,410.08 503.14,403.37 505.87,389.87 C510.38,367.60 510.51,365.92 507.99,362.72 C505.88,360.04 505.69,360.00 494.18,360.01 C481.20,360.01 475.53,361.14 474.00,364.00 C472.60,366.61 470.69,376.69 466.99,401.00 C465.27,412.27 463.01,426.45 461.97,432.50 C459.53,446.69 458.60,455.52 459.34,457.46 ZM 906.91 403.25 C906.86,400.09 906.53,395.45 906.16,392.95 L 905.50 388.41 L 901.41 398.70 L 897.32 409.00 L 907.00 409.00 ZM 290.79 425.51 C290.63,420.84 290.16,417.01 289.75,417.01 C289.34,417.00 289.00,417.48 289.00,418.07 C289.00,418.65 287.45,422.48 285.57,426.57 L 282.13 434.00 L 291.08 434.00 Z" fill="rgba(3,145,242,1)"/>
<path d="M 440.42 480.63 C438.72,479.86 436.36,478.00 435.17,476.48 C432.21,472.73 432.30,464.47 435.51,444.85 C438.32,427.68 440.67,413.11 444.45,389.50 C447.96,367.60 450.88,354.16 453.02,350.00 C455.28,345.62 460.61,340.46 464.33,339.06 C465.95,338.44 480.40,337.71 498.33,337.34 C526.16,336.76 529.84,336.87 532.69,338.34 C539.29,341.75 540.39,347.15 537.52,361.90 C536.70,366.08 534.00,380.30 531.51,393.50 C529.02,406.70 525.84,423.58 524.43,431.00 C517.54,467.40 515.98,472.00 508.94,476.66 C504.26,479.76 497.98,480.42 464.00,481.42 C447.64,481.89 442.88,481.74 440.42,480.63 ZM 501.81 477.89 C504.19,477.38 507.22,476.25 508.55,475.37 C512.66,472.68 516.62,462.67 519.39,448.00 C524.90,418.89 531.23,385.91 533.61,374.00 C534.98,367.12 536.37,357.61 536.69,352.85 C537.27,344.42 537.21,344.12 534.58,341.49 L 531.87 338.78 L 499.19 339.18 C471.55,339.52 466.04,339.83 463.50,341.20 C459.62,343.28 456.71,346.52 454.25,351.50 C452.35,355.32 448.85,370.90 447.50,381.50 C447.15,384.25 446.01,391.45 444.97,397.50 C441.89,415.35 435.12,458.04 434.41,464.10 C433.64,470.70 435.47,475.55 439.76,478.30 C442.27,479.91 444.83,480.01 470.00,479.43 C485.12,479.09 499.44,478.39 501.81,477.89 ZM 225.00 491.32 C225.00,490.79 227.86,483.86 231.35,475.92 C237.59,461.74 245.07,444.63 257.54,416.00 C261.01,408.02 267.20,393.85 271.30,384.50 C275.39,375.15 279.94,364.35 281.42,360.50 C282.90,356.65 284.91,351.48 285.88,349.00 L 287.65 344.50 L 324.32 343.95 L 323.66 377.14 C323.30,395.39 323.00,427.80 323.00,449.16 L 323.00 488.00 L 296.14 488.00 L 295.61 482.75 C295.31,479.86 294.79,474.12 294.45,470.00 C294.11,465.88 293.42,462.00 292.91,461.39 C291.68,459.91 267.92,460.78 266.43,462.36 C265.37,463.47 262.54,470.71 257.85,484.25 L 255.52 491.00 L 249.41 491.00 C246.05,491.00 239.19,491.29 234.15,491.65 C228.42,492.06 225.00,491.93 225.00,491.32 ZM 848.99 449.07 C853.95,439.10 858.00,430.75 858.00,430.52 C858.00,430.29 860.63,424.34 863.84,417.30 C875.38,392.02 886.86,362.24 894.41,338.00 L 898.62 324.50 L 917.06 323.85 C927.20,323.49 935.69,323.37 935.91,323.60 C936.14,323.82 936.70,346.38 937.14,373.75 C937.59,401.11 938.40,432.47 938.95,443.44 C939.50,454.41 939.83,463.50 939.68,463.65 C939.53,463.80 933.96,464.23 927.30,464.60 L 915.19 465.29 L 914.55 458.39 C914.20,454.60 913.59,448.80 913.21,445.50 L 912.50 439.50 L 902.50 439.19 C892.00,438.86 883.35,439.54 881.21,440.87 C880.51,441.30 878.13,446.79 875.93,453.06 C873.74,459.33 871.61,464.76 871.22,465.12 C870.82,465.48 863.64,466.10 855.24,466.49 L 839.99 467.19 ZM 251.03 489.39 L 254.57 488.81 L 259.01 475.85 C261.46,468.73 264.17,462.25 265.04,461.46 C266.16,460.45 270.49,459.83 279.60,459.37 C294.96,458.59 296.00,459.07 296.00,466.92 C296.00,469.55 296.29,475.14 296.65,479.35 L 297.29 487.00 L 303.50 487.00 C306.91,487.00 312.47,486.71 315.85,486.36 L 322.00 485.72 L 322.00 345.05 L 305.75 345.65 C296.81,345.98 289.18,346.54 288.80,346.88 C288.41,347.23 286.53,351.78 284.63,357.00 C282.73,362.23 278.85,371.67 276.00,378.00 C273.16,384.33 265.96,400.75 260.01,414.50 C254.05,428.25 245.73,447.38 241.51,457.00 C237.30,466.62 232.32,477.99 230.46,482.25 L 227.08 490.00 L 237.29 489.99 C242.90,489.98 249.09,489.71 251.03,489.39 ZM 865.99 464.18 L 870.48 463.50 L 874.49 452.17 C876.70,445.93 879.28,440.27 880.23,439.57 C882.08,438.22 908.59,436.52 911.35,437.58 C913.36,438.35 914.69,442.79 915.50,451.50 C916.08,457.78 916.12,460.65 917.57,461.95 C918.99,463.23 921.75,463.00 927.70,463.00 L 938.19 463.00 L 937.70 457.25 C937.43,454.09 936.68,423.16 936.04,388.52 C935.39,353.88 934.74,325.41 934.59,325.26 C934.44,325.11 926.51,325.33 916.96,325.74 L 899.61 326.50 L 897.66 333.00 C887.29,367.52 868.93,413.14 850.87,449.25 L 842.99 465.00 L 852.24 464.93 C857.33,464.89 863.52,464.55 865.99,464.18 ZM 1035.00 457.06 C1035.00,455.85 1038.63,437.69 1042.41,420.00 C1043.76,413.67 1046.68,399.85 1048.91,389.27 C1051.14,378.70 1053.62,367.22 1054.42,363.77 C1055.22,360.32 1057.05,351.65 1058.50,344.50 C1062.28,325.76 1064.17,317.59 1064.88,316.85 C1065.61,316.09 1137.84,313.51 1138.55,314.22 C1139.09,314.75 1133.57,338.76 1132.72,339.61 C1131.81,340.52 1127.19,340.86 1106.81,341.55 C1090.35,342.11 1086.88,342.48 1085.68,343.86 C1084.37,345.36 1078.34,372.70 1079.15,373.47 C1079.34,373.65 1087.33,373.38 1096.89,372.87 C1106.45,372.36 1114.41,372.07 1114.57,372.23 C1114.72,372.39 1114.25,375.21 1113.51,378.51 C1112.78,381.80 1111.49,387.58 1110.66,391.35 C1109.82,395.12 1108.99,398.34 1108.82,398.51 C1108.64,398.68 1101.18,399.27 1092.23,399.81 C1083.18,400.35 1075.36,401.29 1074.61,401.91 C1073.39,402.93 1070.14,416.58 1068.44,427.89 L 1067.78 432.28 L 1083.64 431.61 C1092.36,431.25 1102.94,430.68 1107.14,430.35 L 1114.77 429.76 L 1111.78 442.13 C1110.13,448.93 1108.67,454.63 1108.53,454.78 C1108.39,454.94 1096.85,455.48 1082.89,455.99 C1068.92,456.50 1052.44,457.19 1046.25,457.53 C1038.43,457.96 1035.00,457.81 1035.00,457.06 ZM 955.68 447.39 C955.32,438.65 954.72,406.64 954.35,376.25 L 953.67 321.00 L 977.68 321.00 L 978.34 341.25 C978.70,352.39 979.04,374.77 979.11,391.00 C979.17,407.23 979.51,423.06 979.86,426.18 L 980.50 431.86 L 986.87 416.95 C999.12,388.27 1011.27,354.97 1019.51,327.50 C1021.00,322.55 1022.50,318.22 1022.86,317.88 C1023.21,317.53 1029.87,316.97 1037.66,316.62 L 1051.82 315.98 L 1045.34 331.74 C1035.75,355.08 1017.81,399.68 1005.02,432.00 C998.81,447.67 993.46,460.81 993.12,461.18 C992.78,461.56 984.36,462.19 974.41,462.57 L 956.32 463.28 ZM 773.03 416.75 C778.90,387.46 785.26,355.40 787.16,345.50 L 790.62 327.50 L 811.06 326.74 C822.30,326.33 838.61,325.65 847.30,325.24 C862.65,324.52 863.09,324.56 862.59,326.44 C862.31,327.51 861.12,332.97 859.94,338.57 L 857.79 348.75 L 852.65 349.36 C849.82,349.70 843.45,349.99 838.50,350.00 C833.55,350.01 825.76,350.30 821.20,350.66 C813.57,351.25 812.79,351.51 811.57,353.90 C810.44,356.11 806.00,379.35 806.00,383.03 C806.00,383.99 809.35,384.12 820.75,383.60 C828.86,383.23 837.47,382.66 839.89,382.33 L 844.27 381.73 L 843.58 385.62 C842.94,389.17 838.78,407.16 838.46,407.75 C838.39,407.89 830.75,408.44 821.48,408.97 C809.86,409.64 804.22,410.35 803.30,411.27 C802.56,412.01 800.85,418.43 799.48,425.55 C798.11,432.67 796.75,439.57 796.45,440.87 L 795.90 443.23 L 814.87 442.50 L 833.84 441.78 L 832.92 445.64 C832.42,447.76 830.99,453.55 829.75,458.50 L 827.50 467.50 L 814.00 468.13 C806.58,468.47 791.92,469.04 781.43,469.38 L 762.36 469.99 ZM 336.00 485.34 C336.00,482.07 343.28,460.36 346.53,453.94 C348.04,450.95 355.20,439.73 362.44,429.00 C386.01,394.06 389.63,388.63 396.00,378.73 C399.46,373.36 402.06,368.73 401.78,368.44 C401.49,368.16 390.63,368.28 377.63,368.71 C355.63,369.45 354.00,369.38 354.00,367.78 C354.00,366.83 354.87,361.88 355.94,356.78 C357.01,351.68 358.14,345.88 358.46,343.90 L 359.03 340.31 L 381.27 339.64 C393.49,339.28 410.97,338.69 420.11,338.34 L 436.72 337.71 L 434.44 347.87 C430.33,366.15 431.22,364.34 409.09,399.24 C393.69,423.53 375.83,452.45 373.80,456.41 L 371.79 460.32 L 394.78 459.66 L 417.76 458.99 L 415.25 469.74 C412.77,480.35 412.10,483.59 410.24,484.58 C409.33,485.06 408.12,485.00 406.28,485.00 C403.65,485.00 392.05,485.44 380.50,485.98 C368.95,486.52 354.21,487.11 347.75,487.29 C336.08,487.63 336.00,487.61 336.00,485.34 ZM 1073.09 454.92 L 1107.68 453.65 L 1109.35 445.07 C1110.26,440.36 1111.30,435.42 1111.66,434.10 L 1112.31 431.70 L 1099.91 432.37 C1093.08,432.74 1082.59,433.32 1076.60,433.67 L 1065.70 434.30 L 1066.28 430.40 C1067.40,423.01 1069.88,410.17 1070.98,406.08 C1072.71,399.65 1074.69,398.91 1092.16,398.16 L 1107.38 397.50 L 1108.07 394.50 C1111.45,379.91 1112.32,376.34 1112.75,375.22 C1113.14,374.19 1109.78,374.07 1095.62,374.62 L 1078.00 375.31 L 1078.00 371.78 C1078.00,367.37 1082.38,346.03 1083.84,343.30 C1085.26,340.64 1088.88,340.00 1102.47,340.00 C1108.64,340.00 1117.71,339.72 1122.61,339.37 L 1131.53 338.73 L 1133.89 328.62 C1135.19,323.05 1136.50,317.86 1136.80,317.09 C1137.35,315.63 1122.52,315.78 1079.75,317.66 C1065.39,318.29 1065.00,318.37 1065.00,320.52 C1065.00,321.74 1063.88,327.85 1062.52,334.12 C1061.15,340.38 1059.10,350.00 1057.96,355.50 C1056.82,361.00 1055.03,369.33 1053.98,374.00 C1052.93,378.67 1050.90,388.12 1049.46,395.00 C1046.06,411.33 1043.61,422.88 1040.56,437.00 C1037.27,452.25 1036.49,457.43 1037.60,456.75 C1038.09,456.45 1054.07,455.63 1073.09,454.92 ZM 823.29 465.81 C826.37,465.50 826.42,465.40 829.07,454.50 C830.55,448.45 831.69,443.42 831.61,443.32 C831.54,443.22 823.24,443.61 813.18,444.18 C803.12,444.75 794.74,445.05 794.56,444.86 C794.21,444.46 799.53,415.05 800.52,411.94 C801.55,408.70 803.98,408.16 820.79,407.42 C834.40,406.82 837.02,406.45 837.37,405.10 C840.47,393.14 842.28,384.95 841.91,384.57 C841.66,384.32 833.16,384.53 823.03,385.03 C812.89,385.53 804.38,385.72 804.12,385.45 C803.68,385.01 805.35,374.47 808.22,359.52 C810.16,349.42 810.12,349.44 834.51,348.61 C846.02,348.22 855.62,347.72 855.84,347.50 C856.56,346.78 859.93,331.56 859.97,328.88 L 860.00 326.25 L 851.25 326.64 C846.44,326.86 831.29,327.47 817.60,328.00 C803.90,328.53 792.55,329.12 792.37,329.30 C792.18,329.49 791.34,333.21 790.50,337.57 C789.66,341.93 788.07,350.00 786.98,355.50 C774.72,416.91 767.69,452.01 766.19,459.27 C765.20,464.10 764.48,468.15 764.61,468.27 C764.86,468.53 818.55,466.27 823.29,465.81 ZM 987.36 460.18 L 992.21 459.50 L 999.40 441.50 C1003.35,431.60 1009.68,415.62 1013.46,406.00 C1020.92,387.01 1032.89,357.21 1035.95,350.00 C1041.82,336.15 1046.39,325.05 1047.58,321.72 L 1048.93 317.94 L 1036.76 318.22 L 1024.58 318.50 L 1014.47 348.50 C1004.03,379.51 994.64,403.92 985.36,424.22 C982.41,430.66 980.00,436.40 980.00,436.97 C980.00,437.53 979.55,438.00 979.00,438.00 C978.89,438.00 978.79,438.02 978.71,438.00 C977.83,437.79 977.81,433.92 977.11,374.05 L 976.50 322.61 L 966.00 322.89 C960.22,323.04 955.42,323.25 955.32,323.34 C954.97,323.69 956.95,433.92 957.56,447.50 L 958.18 461.50 L 970.34 461.18 C977.03,461.01 984.68,460.56 987.36,460.18 ZM 389.49 483.89 C400.48,483.33 409.66,482.67 409.89,482.44 C410.21,482.13 415.82,461.66 415.98,460.27 C415.99,460.15 414.76,460.24 413.25,460.48 C411.74,460.71 401.61,461.17 390.75,461.49 C371.66,462.06 371.00,462.02 371.00,460.14 C371.00,457.02 383.80,435.62 412.03,391.54 C426.32,369.23 427.57,366.90 430.15,357.62 C431.68,352.15 433.23,345.65 433.60,343.17 C434.18,339.30 434.05,338.77 432.67,339.30 C431.79,339.63 415.29,340.23 396.01,340.61 L 360.96 341.32 L 360.31 343.91 C359.95,345.33 358.71,351.29 357.56,357.14 L 355.46 367.78 L 371.98 367.37 C381.07,367.15 392.21,366.80 396.75,366.60 C401.29,366.39 405.00,366.55 405.00,366.95 C405.00,368.39 390.64,390.35 365.07,428.00 C356.67,440.38 348.77,452.52 347.52,455.00 C344.99,459.98 339.58,476.33 338.45,482.38 L 337.73 486.25 L 353.61 485.59 C362.35,485.22 378.49,484.46 389.49,483.89 ZM 572.35 403.83 C572.69,402.55 573.41,399.02 573.95,396.00 C579.25,366.25 580.44,360.67 581.91,358.87 C583.35,357.09 585.08,356.76 595.64,356.28 C613.49,355.45 613.71,355.83 610.05,380.69 C607.69,396.74 606.54,401.22 604.25,403.22 C602.93,404.38 598.75,404.93 587.11,405.46 L 571.72 406.16 ZM 647.40 403.82 C647.79,365.22 648.34,333.27 648.61,332.82 C648.89,332.37 654.72,332.00 661.56,332.00 L 674.00 332.00 L 674.03 373.25 C674.05,400.12 674.40,413.93 675.02,412.85 C677.94,407.85 692.42,361.70 698.10,339.31 L 700.43 330.11 L 711.80 329.81 C718.06,329.64 723.25,329.57 723.34,329.66 C723.43,329.75 723.22,338.30 722.88,348.66 C722.54,359.02 721.99,378.75 721.65,392.50 L 721.04 417.50 L 723.33 410.77 C725.69,403.85 727.00,401.50 727.00,404.22 C727.00,405.86 720.38,424.95 719.51,425.82 C718.37,426.96 718.90,405.08 721.49,344.21 L 722.05 330.93 L 711.82 331.21 L 701.58 331.50 L 700.42 337.00 C699.78,340.02 698.35,345.65 697.24,349.50 C687.25,384.04 680.48,404.80 676.35,413.50 L 673.50 419.50 L 673.24 376.11 L 672.98 332.72 L 667.74 333.35 C664.86,333.70 659.74,333.99 656.38,333.99 L 650.25 334.00 L 649.62 371.25 C649.28,391.74 648.71,422.94 648.38,440.59 L 647.76 472.68 L 661.13 472.23 C668.48,471.98 674.81,471.49 675.20,471.14 C675.81,470.58 684.92,444.73 696.91,409.56 C701.23,396.88 703.63,394.40 702.68,403.62 C702.34,406.85 701.76,423.18 701.38,439.91 L 700.70 470.31 L 705.49 469.66 C708.12,469.30 714.51,469.00 719.67,469.00 C726.29,469.00 729.19,468.63 729.48,467.75 C730.05,466.05 752.31,404.72 756.44,393.50 C758.25,388.55 761.56,379.55 763.78,373.50 C766.00,367.45 770.56,355.38 773.91,346.68 C777.26,337.97 780.00,330.55 780.00,330.18 C780.00,329.80 774.20,329.64 767.10,329.80 L 754.20 330.11 L 753.51 333.80 C751.00,347.22 730.99,407.00 729.01,407.00 C728.55,407.00 729.53,403.51 731.18,399.25 C733.70,392.75 738.15,379.28 746.45,353.00 C747.24,350.52 749.08,344.16 750.55,338.85 C751.89,333.99 752.48,331.30 754.14,329.82 C756.37,327.83 760.53,328.00 771.01,328.00 L 782.77 328.00 L 778.01 340.75 C775.39,347.76 769.36,363.85 764.62,376.50 C755.32,401.28 752.60,408.67 739.22,445.50 L 730.50 469.50 L 723.50 470.14 C719.65,470.50 712.77,471.02 708.20,471.30 L 699.90 471.82 L 700.20 438.49 C700.37,420.16 700.37,405.29 700.21,405.45 C700.05,405.61 698.63,409.51 697.04,414.12 C695.46,418.73 690.71,432.40 686.49,444.50 C682.27,456.60 678.40,467.90 677.90,469.60 C677.00,472.67 676.90,472.71 668.74,473.35 C664.21,473.70 657.39,473.99 653.59,473.99 L 646.68 474.00 ZM 173.00 414.90 C173.00,412.49 178.16,385.18 179.51,380.42 C180.57,376.71 181.65,375.03 183.53,374.17 C186.73,372.71 208.40,372.61 211.07,374.04 C213.55,375.37 213.54,378.18 210.99,395.05 C209.40,405.60 208.49,408.98 206.56,411.51 C204.23,414.57 203.78,414.72 194.91,415.35 C181.04,416.33 173.00,416.17 173.00,414.90 ZM 603.69 401.84 C605.08,400.69 606.22,395.16 608.43,378.92 C610.12,366.42 610.34,362.06 609.39,359.58 C608.54,357.37 584.89,357.23 583.07,359.42 C581.95,360.76 579.95,370.58 576.47,391.73 C575.64,396.81 574.66,401.71 574.31,402.63 C573.72,404.16 574.86,404.24 588.08,403.57 C596.01,403.16 603.03,402.39 603.69,401.84 ZM 204.41 411.69 C206.59,409.50 208.41,401.80 211.60,381.17 C212.48,375.51 211.27,375.00 197.03,375.00 C186.17,375.00 184.08,375.26 182.76,376.75 C181.45,378.22 175.00,408.04 175.00,412.61 C175.00,413.73 177.64,414.00 188.55,414.00 C201.37,414.00 202.21,413.88 204.41,411.69 ZM 886.56 413.78 C886.95,412.52 890.64,403.40 894.76,393.50 C898.88,383.60 904.70,369.20 907.69,361.50 C910.68,353.80 913.55,347.07 914.06,346.55 C914.88,345.73 915.25,362.54 915.47,408.75 L 915.50 415.50 L 900.67 415.78 L 885.85 416.05 ZM 272.75 438.75 C273.06,437.51 278.13,425.25 284.00,411.50 C289.88,397.75 295.24,384.81 295.92,382.75 C296.65,380.53 297.80,379.00 298.73,379.00 C300.08,379.00 300.21,380.15 299.65,387.25 C299.30,391.79 299.01,405.74 299.01,418.25 L 299.00 441.00 L 285.59 441.00 C272.19,441.00 272.19,441.00 272.75,438.75 ZM 532.00 478.03 C532.00,477.49 532.91,472.66 534.02,467.28 C537.19,451.92 539.69,439.38 541.85,428.00 C542.95,422.23 545.00,411.42 546.42,404.00 C550.77,381.17 557.79,343.70 558.43,339.86 L 559.05 336.23 L 588.64 335.49 C620.38,334.69 626.53,334.99 630.37,337.51 C635.12,340.62 636.34,345.17 635.70,357.44 C635.02,370.38 632.66,389.36 630.41,400.00 C627.83,412.16 622.40,419.31 614.76,420.59 C611.53,421.14 611.54,421.12 615.50,419.20 C620.46,416.78 624.41,412.66 626.46,407.74 C629.17,401.27 633.04,375.36 633.68,359.43 L 634.29 344.35 L 631.39 341.12 C629.61,339.14 626.98,337.55 624.56,337.01 C621.82,336.39 562.25,337.28 560.41,337.97 C560.36,337.98 559.77,341.26 559.11,345.25 C558.44,349.24 557.03,357.00 555.98,362.50 C554.93,368.00 552.92,378.58 551.52,386.00 C550.11,393.42 548.10,404.00 547.04,409.50 C545.98,415.00 543.05,430.30 540.53,443.50 C538.01,456.70 535.50,469.39 534.97,471.69 C534.44,474.00 534.00,476.25 534.00,476.69 C534.00,477.14 538.82,477.27 544.71,477.00 L 555.43 476.50 L 556.63 470.00 C557.29,466.42 558.80,458.10 559.99,451.50 C561.19,444.90 562.61,437.10 563.17,434.16 C564.71,426.03 566.26,425.00 576.96,425.00 C584.48,425.00 586.08,425.28 586.86,426.75 C587.78,428.48 588.01,430.69 590.03,457.00 C590.87,468.02 590.76,472.37 592.83,474.05 C594.52,475.42 597.67,475.00 604.02,475.00 C612.95,475.00 615.99,474.68 615.98,473.75 C615.97,473.06 615.55,469.80 615.05,466.50 C610.94,439.31 608.84,422.83 609.42,422.25 C609.69,421.98 610.15,422.83 610.44,424.13 C611.73,429.78 618.04,475.24 617.60,475.71 C617.49,475.83 611.28,476.24 603.80,476.61 L 590.19 477.29 L 589.60 470.90 C589.28,467.38 588.32,456.40 587.48,446.51 C586.53,435.38 585.48,428.11 584.72,427.45 C583.96,426.78 580.52,426.60 575.51,426.94 C568.23,427.45 567.41,427.72 566.33,430.00 C565.67,431.38 563.50,441.73 561.50,453.00 C559.51,464.27 557.69,474.45 557.46,475.60 C557.08,477.46 556.11,477.77 548.77,478.34 C537.12,479.25 532.00,479.15 532.00,478.03 ZM 134.00 495.60 C134.00,495.12 142.06,449.91 146.95,423.00 C148.00,417.23 149.83,407.10 151.01,400.50 C152.19,393.90 154.22,382.65 155.52,375.50 C156.82,368.35 158.39,359.52 159.03,355.88 L 160.18 349.26 L 179.34 348.60 C229.51,346.87 234.74,347.36 239.04,354.19 C242.40,359.53 241.31,369.95 233.51,406.85 C230.68,420.21 227.95,428.34 225.23,431.51 C221.97,435.29 217.73,438.00 215.12,437.96 C212.67,437.92 212.72,437.83 216.00,436.41 C222.00,433.81 225.90,429.16 228.04,422.01 C231.64,410.06 238.10,376.62 238.67,367.00 C239.19,358.16 239.07,357.30 236.95,354.63 C232.47,349.00 231.09,348.83 194.93,349.61 C166.08,350.22 161.98,350.51 161.56,351.91 C161.29,352.78 160.16,358.90 159.05,365.50 C157.93,372.10 156.58,379.52 156.05,382.00 C155.51,384.48 153.69,394.38 151.99,404.00 C145.70,439.75 139.96,471.83 137.88,482.79 C136.71,489.00 135.95,494.28 136.20,494.53 C136.45,494.78 141.31,494.65 147.00,494.24 L 157.34 493.50 L 162.42 466.90 C165.21,452.27 168.12,439.56 168.87,438.65 C169.93,437.37 172.01,437.00 178.05,437.00 C186.92,437.00 189.00,438.19 189.00,443.24 C189.00,444.95 189.90,453.13 191.00,461.42 C192.09,469.72 193.33,479.65 193.75,483.50 L 194.50 490.50 L 205.62 490.78 L 216.73 491.06 L 215.38 482.78 C214.64,478.23 213.11,468.20 212.00,460.50 C210.88,452.80 209.71,445.26 209.40,443.75 C209.09,442.24 209.25,441.00 209.74,441.00 C210.23,441.00 211.88,449.21 213.41,459.25 C214.94,469.29 216.74,480.76 217.43,484.75 L 218.68 492.00 L 213.49 492.00 C210.64,492.00 204.95,492.28 200.85,492.63 L 193.39 493.26 L 191.13 474.88 C187.36,444.36 186.79,440.55 185.75,439.25 C184.30,437.42 171.60,437.58 170.05,439.44 C169.39,440.23 168.26,444.17 167.54,448.19 C166.81,452.21 164.59,464.13 162.61,474.68 C160.62,485.23 159.00,494.34 159.00,494.93 C159.00,495.63 154.71,496.00 146.50,496.00 C139.62,496.00 134.00,495.82 134.00,495.60 ZM 913.76 413.52 C913.91,413.40 913.91,399.22 913.76,382.00 L 913.50 350.69 L 908.53 363.59 C905.80,370.69 900.25,384.38 896.21,394.00 C892.16,403.62 888.59,412.31 888.29,413.31 C887.77,415.01 888.49,415.07 900.62,414.42 C907.70,414.04 913.62,413.64 913.76,413.52 ZM 287.59 439.01 L 296.69 439.00 L 297.29 411.78 C297.62,396.80 297.76,384.42 297.60,384.26 C297.44,384.11 296.04,387.02 294.50,390.74 C292.95,394.46 288.78,404.25 285.23,412.50 C281.68,420.75 277.68,430.37 276.35,433.88 L 273.92 440.25 L 276.21 439.64 C277.47,439.30 282.59,439.02 287.59,439.01 ZM 459.34 457.46 C458.60,455.52 459.53,446.69 461.97,432.50 C463.01,426.45 465.27,412.27 466.99,401.00 C470.69,376.69 472.60,366.61 474.00,364.00 C475.53,361.14 481.20,360.01 494.18,360.01 C505.69,360.00 505.88,360.04 507.99,362.72 C510.51,365.92 510.38,367.60 505.87,389.87 C503.14,403.37 501.11,410.08 501.03,405.83 C501.01,404.91 501.87,400.41 502.92,395.83 C506.53,380.23 508.52,366.04 507.35,364.20 C506.45,362.75 504.17,362.46 492.17,362.22 C479.63,361.98 477.85,362.15 476.24,363.76 C474.91,365.09 473.68,370.14 471.68,382.54 C462.17,441.34 460.06,455.28 460.56,456.09 C461.20,457.14 483.24,457.15 487.00,456.11 C490.25,455.21 491.61,452.17 492.88,443.00 C493.45,438.88 494.42,433.14 495.04,430.26 C496.05,425.53 496.35,425.12 498.08,426.04 C499.61,426.86 499.99,428.13 499.94,432.29 C499.86,439.35 498.73,445.26 497.37,445.71 C496.57,445.98 496.64,444.38 497.61,440.29 C499.18,433.62 499.42,427.00 498.09,427.00 C497.23,427.00 495.86,434.05 494.45,445.74 C494.10,448.62 492.83,452.45 491.62,454.24 C489.06,458.04 485.66,458.77 469.72,458.91 C461.77,458.98 459.83,458.71 459.34,457.46 Z" fill="rgba(210,237,252,1)"/>
<path d="M 160.06 577.57 C158.62,575.84 159.18,573.65 163.06,565.92 L 165.85 560.34 L 158.47 555.52 C146.54,547.71 147.26,546.16 163.67,544.36 C182.63,542.28 194.93,541.07 203.50,540.46 C207.90,540.14 218.70,539.25 227.50,538.47 C236.30,537.70 249.80,536.60 257.50,536.03 C265.20,535.47 288.38,533.67 309.00,532.04 C329.62,530.41 352.58,528.60 360.00,528.01 C367.42,527.43 384.52,526.06 398.00,524.97 C411.48,523.89 428.80,522.55 436.50,522.00 C444.20,521.45 459.50,520.33 470.50,519.52 C510.37,516.59 534.91,514.99 555.50,513.97 C567.05,513.40 586.62,512.29 599.00,511.50 C611.38,510.71 628.47,509.80 637.00,509.49 C645.53,509.17 666.22,508.26 683.00,507.46 C699.78,506.66 723.85,505.54 736.50,504.98 C749.15,504.42 772.55,503.30 788.50,502.50 C804.45,501.70 830.78,500.57 847.00,500.00 C863.22,499.43 882.80,498.54 890.50,498.03 C898.20,497.51 912.83,496.82 923.00,496.50 C933.17,496.18 949.83,495.48 960.00,494.94 C1013.60,492.13 1059.23,489.87 1073.22,489.32 C1090.27,488.65 1090.80,488.78 1093.57,494.14 C1094.89,496.68 1094.85,497.01 1093.11,497.94 C1092.06,498.50 1083.40,499.66 1073.85,500.52 C1064.31,501.38 1055.82,502.27 1055.00,502.50 C1054.18,502.74 1047.65,503.40 1040.50,503.98 C1033.35,504.56 1018.05,505.90 1006.50,506.96 C994.95,508.02 979.42,509.38 972.00,509.97 C964.58,510.56 950.62,511.69 941.00,512.46 C931.38,513.24 919.67,514.13 915.00,514.45 C910.33,514.77 901.55,515.47 895.50,516.00 C889.45,516.53 877.53,517.42 869.00,517.97 C860.47,518.52 836.17,520.33 815.00,522.00 C793.83,523.66 767.95,525.69 757.50,526.50 C747.05,527.31 733.33,528.45 727.00,529.03 C720.67,529.60 704.25,530.95 690.50,532.01 C676.75,533.08 660.33,534.39 654.00,534.93 C647.67,535.47 630.80,536.83 616.50,537.96 C585.91,540.37 569.42,541.72 555.00,543.00 C549.22,543.51 540.67,544.19 536.00,544.52 C528.56,545.03 522.42,545.58 503.00,547.48 C500.52,547.72 494.00,548.19 488.50,548.52 C483.00,548.85 468.38,549.99 456.00,551.06 C443.62,552.13 430.12,553.26 426.00,553.57 C421.88,553.87 409.50,554.97 398.50,556.00 C387.50,557.03 372.88,558.37 366.00,558.97 C359.12,559.57 349.23,560.50 344.00,561.04 C338.77,561.58 325.95,562.91 315.50,564.00 C271.74,568.54 215.36,573.85 177.00,577.05 C170.12,577.62 163.78,578.30 162.89,578.57 C162.01,578.83 160.73,578.38 160.06,577.57 Z" fill="rgba(239,31,131,1)"/>
</g>
</svg>