<svg version="1.1" id="Layer_1" xmlns="http://www.w3.org/2000/svg" xmlns:xlink="http://www.w3.org/1999/xlink" x="0px" y="0px" width="100%" viewBox="0 0 1024 1024" enable-background="new 0 0 1024 1024" xml:space="preserve">

<path fill="#FE1582" opacity="1.000000" stroke="none" d="
M207.911621,794.028687 
	C203.829193,791.348389 201.985245,787.514038 201.986313,782.685608 
	C201.997726,730.749329 201.456360,678.804321 202.289459,626.881348 
	C202.594727,607.854675 210.229263,590.196777 220.470459,574.173096 
	C241.545349,541.198669 271.201050,520.268738 309.714905,512.287720 
	C310.845795,512.053345 312.027679,512.065063 313.898193,512.297607 
	C317.376678,512.401611 320.142822,512.170044 322.944305,511.737122 
	C322.979675,511.535797 323.066406,511.136261 323.066406,511.136292 
	C325.070587,511.110870 327.074768,511.085480 329.554565,511.292419 
	C330.030182,511.524719 330.109955,511.921356 329.750916,511.951813 
	C328.638000,512.052185 327.884125,512.122070 327.130249,512.192017 
	C327.697998,512.897644 328.253143,512.984314 328.808258,512.984436 
	C363.942078,512.993652 399.075867,513.004700 434.209656,512.961670 
	C435.459381,512.960144 436.708496,512.416809 437.957916,512.125977 
	C456.538635,514.190308 473.209290,521.371216 488.750366,531.381958 
	C494.126373,534.844849 499.140839,538.869080 504.884125,543.046997 
	C504.884125,540.696899 504.883942,538.931580 504.884125,537.166260 
	C504.892700,450.415924 504.831116,363.665436 504.974884,276.915344 
	C505.000732,261.329346 510.852631,248.104355 523.920654,238.058258 
	C525.372803,237.271500 526.173767,236.601761 526.974792,235.932037 
	C526.974792,235.932053 526.988220,235.999359 527.341003,235.987518 
	C530.427002,234.561920 533.160156,233.148148 535.893372,231.734375 
	C535.893372,231.734390 535.921265,231.841690 536.279480,231.886627 
	C538.758484,231.619232 540.879211,231.306870 543.468628,230.993988 
	C620.533936,230.993713 697.130493,231.001343 773.727112,230.954910 
	C775.794678,230.953659 777.861938,230.368515 780.404846,230.036285 
	C791.684265,230.009445 802.524048,229.461868 813.280151,230.174973 
	C821.095215,230.693100 828.835388,232.715652 836.535706,234.401962 
	C839.536621,235.059174 842.336731,236.633270 845.228333,237.789734 
	C845.228333,237.789749 845.115845,237.834534 845.228271,238.079803 
	C845.918213,238.534439 846.495789,238.743790 847.073364,238.953156 
	C847.073364,238.953140 847.013428,238.995224 847.139160,239.201462 
	C847.577576,239.566635 847.890381,239.725586 848.203125,239.884521 
	C848.203125,239.884506 848.083435,239.902512 848.183044,240.172928 
	C849.519653,241.296829 850.756653,242.150314 851.993652,243.003815 
	C851.993652,243.003815 852.000000,243.000000 852.040161,243.322983 
	C852.719604,244.097015 853.358826,244.548065 853.998047,244.999115 
	C853.998047,244.999130 854.000000,245.000000 854.101318,245.219711 
	C854.391846,245.713287 854.643799,245.904694 854.958435,246.013657 
	C854.958435,246.013657 855.001953,245.999435 855.030640,246.356415 
	C855.816650,247.442261 856.573975,248.171143 857.331299,248.900024 
	C857.649414,248.958740 857.864014,249.139999 858.023193,249.989227 
	C858.490051,250.965973 858.908875,251.397263 859.327637,251.828568 
	C859.327637,251.828583 859.178406,251.869705 859.224731,252.069427 
	C859.543030,252.501709 859.815002,252.734253 860.087036,252.966797 
	C860.087036,252.966782 860.012878,252.976852 860.094116,253.170959 
	C860.321228,253.659943 860.538818,253.885635 860.828125,254.042160 
	C860.828125,254.042160 860.972473,254.092453 860.970215,254.488602 
	C861.394653,255.556442 861.821472,256.228119 862.248291,256.899780 
	C862.248291,256.899780 862.133789,256.914398 862.132324,257.250580 
	C867.273254,270.300323 869.423889,283.540985 868.978027,297.210358 
	C868.844299,301.311554 868.418640,305.403259 868.126770,309.499298 
	C868.126770,309.499298 868.187378,309.784210 867.786926,310.045288 
	C867.014099,311.288391 866.641724,312.270416 866.269348,313.252411 
	C866.269348,313.252411 866.221802,313.139038 865.960510,313.251343 
	C865.514221,313.967499 865.329224,314.571411 865.144165,315.175293 
	C865.144165,315.175293 865.110352,315.085297 864.838745,315.180969 
	C864.039490,316.173370 863.511902,317.070160 862.984375,317.966949 
	C862.816772,318.249420 862.649231,318.531921 862.024170,319.012878 
	C861.287903,319.409729 861.100098,319.673004 861.003174,320.001190 
	C861.003174,320.001190 861.000000,320.000000 860.783447,320.098358 
	C860.293640,320.379028 860.097229,320.623230 859.977783,320.929291 
	C859.977783,320.929291 859.984680,320.997467 859.652710,321.019958 
	C858.918030,321.440674 858.515381,321.838898 858.112732,322.237122 
	C858.112732,322.237152 858.085876,322.109314 857.883667,322.182983 
	C857.463501,322.538361 857.245483,322.820038 857.027466,323.101746 
	C856.666687,323.424103 856.305969,323.746460 855.267334,324.068359 
	C849.308838,325.045105 844.039246,326.089233 838.742676,326.970367 
	C836.203735,327.392761 833.613464,327.506775 831.046448,327.760437 
	C830.577393,327.808502 830.108337,327.856537 828.963623,327.588623 
	C816.695740,326.898560 805.104309,326.482666 793.509216,326.245361 
	C792.745300,326.229736 791.953430,327.576691 791.174561,328.289856 
	C791.174561,328.289856 791.066772,328.109192 790.806030,328.310608 
	C790.363464,330.472015 790.023010,332.431976 790.022522,334.392029 
	C789.996094,440.267059 789.998291,546.142090 789.999329,652.469116 
	C789.698730,667.886414 786.223450,682.257568 781.790894,696.440002 
	C780.031433,702.069824 778.119202,707.651978 776.276489,713.255798 
	C776.276489,713.255798 776.249268,713.133667 775.974243,713.259644 
	C775.586792,714.016296 775.474426,714.646973 775.362061,715.277710 
	C775.362061,715.277710 775.217590,715.055908 774.957581,715.223022 
	C773.908020,717.362549 773.118469,719.334961 772.328979,721.307434 
	C772.328979,721.307434 772.258301,721.191223 771.990356,721.285400 
	C771.562256,721.999573 771.402039,722.619568 771.241821,723.239502 
	C771.241821,723.239502 771.191956,723.127441 770.935303,723.244995 
	C770.507751,723.971375 770.336853,724.580200 770.165894,725.189087 
	C770.165894,725.189087 770.123962,725.088867 769.880981,725.217285 
	C769.452393,725.935059 769.266785,726.524414 769.081116,727.113708 
	C769.081116,727.113708 769.040039,727.038147 768.763916,727.165771 
	C768.050293,728.261475 767.612732,729.229614 767.175171,730.197754 
	C767.175232,730.197754 767.132568,730.095459 766.889771,730.216553 
	C766.447998,730.917603 766.248962,731.497437 766.049988,732.077332 
	C766.049988,732.077332 766.006592,732.015930 765.800171,732.146362 
	C765.451416,732.601379 765.309143,732.926025 765.166870,733.250671 
	C765.166870,733.250671 765.137939,733.105835 764.903442,733.226990 
	C764.457947,733.934326 764.247009,734.520447 764.036072,735.106628 
	C764.061584,735.414429 763.968262,735.680603 763.255859,736.099487 
	C762.499207,736.854248 762.242798,737.414612 761.986450,737.974915 
	C761.986450,737.974915 762.003052,737.998291 761.769165,738.121460 
	C761.375122,738.536865 761.214966,738.829163 761.054810,739.121460 
	C761.054871,739.121460 761.041321,739.041870 760.829834,739.158325 
	C760.464539,739.598206 760.310852,739.921631 760.157104,740.245056 
	C760.157104,740.245056 760.136902,740.110168 759.865906,740.202515 
	C759.086609,741.231323 758.578308,742.167725 758.070007,743.104187 
	C758.070007,743.104187 758.028931,743.030640 757.820557,743.148132 
	C757.449585,743.581726 757.287048,743.897827 757.124451,744.213928 
	C757.124451,744.213928 757.101440,744.093872 756.888794,744.195068 
	C756.525085,744.631653 756.373962,744.967102 756.222839,745.302551 
	C756.222839,745.302551 756.194092,745.163696 755.920898,745.231689 
	C755.098328,746.199036 754.548950,747.098389 753.999573,747.997803 
	C753.999573,747.997803 754.000000,748.000000 753.775391,748.114624 
	C753.377136,748.509094 753.203552,748.788879 753.029907,749.068665 
	C753.029907,749.068665 753.003357,749.007141 752.796997,749.126343 
	C752.412231,749.538269 752.233826,749.830994 752.055420,750.123657 
	C752.055420,750.123718 752.042419,750.037354 751.736633,750.077515 
	C750.999939,750.807495 750.568970,751.497253 750.138062,752.187073 
	C750.138062,752.187073 750.095337,752.097839 749.878784,752.186768 
	C749.484802,752.591858 749.307373,752.908020 749.129944,753.224182 
	C749.129944,753.224182 749.108521,753.100708 748.844971,753.187622 
	C747.766968,754.263000 746.952454,755.251404 746.137939,756.239868 
	C746.138000,756.239868 746.114441,756.112732 745.859985,756.190002 
	C745.113892,756.922791 744.622375,757.578247 744.130859,758.233765 
	C744.130859,758.233765 744.099976,758.110596 743.891724,758.191772 
	C743.486145,758.577271 743.288818,758.881653 743.091492,759.186035 
	C743.091492,759.186035 743.092468,759.090515 742.791626,759.109375 
	C742.014893,759.786194 741.539124,760.444092 741.063293,761.102051 
	C741.063293,761.102051 741.025696,761.026978 740.825195,761.124146 
	C740.418640,761.486389 740.212524,761.751587 740.006470,762.016785 
	C740.006470,762.016785 740.000000,762.000000 739.670593,762.030457 
	C738.631714,762.814880 737.922302,763.568848 737.212891,764.322876 
	C737.212952,764.322876 737.158691,764.190674 736.942749,764.247070 
	C736.532593,764.618958 736.338440,764.934387 736.144287,765.249756 
	C736.144226,765.249756 736.112488,765.123352 735.903992,765.198120 
	C735.488647,765.569824 735.281799,765.866699 735.074890,766.163574 
	C735.074890,766.163574 735.062256,766.063660 734.859497,766.147583 
	C734.442200,766.499939 734.227722,766.768433 734.013306,767.036865 
	C734.013245,767.036865 734.002075,766.996277 733.676270,767.046814 
	C732.939392,767.583984 732.528259,768.070679 732.117126,768.557373 
	C732.044556,768.817444 731.877808,768.982239 731.169922,769.130127 
	C730.484009,769.472412 730.245178,769.736328 730.006348,770.000244 
	C730.006348,770.000244 730.000000,770.000000 729.672913,770.026001 
	C728.575500,770.733154 727.805115,771.414429 727.034729,772.095703 
	C727.034729,772.095642 727.018616,772.017090 726.729492,772.046143 
	C726.007812,772.481384 725.575256,772.887512 725.142761,773.293701 
	C725.142761,773.293701 725.108582,773.146423 724.910645,773.205017 
	C724.487793,773.541138 724.262817,773.818665 724.037842,774.096191 
	C724.037903,774.096191 724.023438,774.015808 723.725403,774.043640 
	C722.624512,774.732483 721.821594,775.393433 721.018738,776.054443 
	C721.018738,776.054443 721.009033,775.996033 720.718689,776.027832 
	C719.970581,776.426147 719.512817,776.792664 719.055115,777.159241 
	C719.055115,777.159241 719.057983,777.072876 718.770020,777.081604 
	C718.028931,777.483826 717.575867,777.877258 717.122803,778.270752 
	C717.122864,778.270752 717.107971,778.156311 716.821533,778.142456 
	C716.095703,778.545227 715.656189,778.961853 715.216736,779.378479 
	C715.216736,779.378479 715.186584,779.252991 714.871460,779.210693 
	C712.388123,780.490662 710.220032,781.812927 708.051941,783.135193 
	C708.051941,783.135193 708.041626,783.047241 707.687622,783.045044 
	C706.229248,783.359680 705.084473,783.577271 704.026611,784.008240 
	C686.508484,791.144531 668.507446,795.145020 649.383545,795.117554 
	C505.178894,794.910400 360.973846,795.002258 216.768890,795.011047 
	C214.441360,795.011169 212.113815,795.140259 209.786285,795.209106 
	C209.786285,795.209106 209.896194,795.176208 209.775696,794.925293 
	C209.073990,794.459106 208.492798,794.243958 207.911621,794.028687 
M522.586731,768.415344 
	C522.724487,767.108337 522.982056,765.801331 522.982605,764.494263 
	C523.002563,718.781799 522.999512,673.069397 522.990784,627.356934 
	C522.990601,626.274536 522.889282,625.192078 522.835144,624.109680 
	C522.671204,624.098145 522.507324,624.086609 522.343384,624.075073 
	C522.155762,625.164856 521.968201,626.254639 521.377502,626.639709 
	C519.163086,606.177368 510.171661,588.764648 496.629333,573.715881 
	C475.911926,550.693848 450.330536,537.888794 418.839905,538.003906 
	C389.014923,538.112915 359.189178,537.999329 329.363800,538.026611 
	C326.040924,538.029663 322.678894,538.039978 319.401947,538.511841 
	C295.118744,542.008179 274.519531,552.957214 257.611328,570.485718 
	C239.001053,589.778809 228.422760,612.382751 228.813843,639.978821 
	C229.399307,681.292969 228.980453,722.621399 228.988693,763.943726 
	C228.989044,765.741943 228.988739,767.540222 228.988739,769.030029 
	C231.940994,769.030029 234.412704,769.030090 236.884415,769.029968 
	C329.026672,769.026794 421.168915,769.023804 513.311157,769.019165 
	C516.200745,769.018982 519.090393,769.000061 522.586731,768.415344 
M765.012451,288.212708 
	C767.948975,277.780548 770.885498,267.348389 773.803101,256.983521 
	C771.080688,256.983521 767.589661,256.984283 764.098633,256.983429 
	C693.795044,256.966003 623.491150,256.872711 553.188416,257.107147 
	C548.669617,257.122192 543.572510,258.766754 539.773865,261.236511 
	C533.028870,265.621826 531.925720,273.001373 531.932495,280.681458 
	C532.017700,376.474243 532.037537,472.267120 531.958740,568.059875 
	C531.954346,573.350220 532.990967,577.991760 535.368164,582.786743 
	C541.965698,596.094543 547.121643,609.941956 547.365845,625.629272 
	C547.244934,627.440247 547.019226,629.251099 547.018433,631.062134 
	C546.998535,674.792908 547.002625,718.523621 547.002441,762.254395 
	C547.002441,764.132019 547.002441,766.009705 547.002441,767.887329 
	C547.195374,767.885437 547.388245,767.883545 547.581177,767.881653 
	C547.846375,766.655151 548.111572,765.428650 548.668884,765.047913 
	C548.841797,766.427246 549.014709,767.806580 549.170715,769.051392 
	C583.399902,769.051392 617.024719,769.138184 650.648376,768.980103 
	C657.608032,768.947388 664.695984,768.687256 671.498962,767.367615 
	C708.950195,760.102539 734.717896,737.883240 750.831543,703.915710 
	C759.508118,685.625305 762.404480,665.872742 765.110352,645.693481 
	C765.406616,643.965271 765.961609,642.237183 765.962219,640.508850 
	C766.003357,525.099548 766.003540,409.690186 765.963501,294.280853 
	C765.962891,292.532776 765.414673,290.784912 765.012451,288.212708 
M842.965332,294.945190 
	C842.963501,289.478546 843.465027,283.955139 842.856201,278.556946 
	C841.543701,266.920593 834.622986,258.643005 825.405518,256.747253 
	C815.716553,254.754501 806.204895,259.497681 800.200623,269.779053 
	C794.646912,279.289154 793.040222,289.837128 792.586731,300.971741 
	C806.774109,300.971741 820.567139,301.262878 834.328674,300.733917 
	C837.189148,300.623962 839.932739,297.475159 842.965332,294.945190 
z" data-index="1" style="opacity: 1;"></path>
<path fill="#FD1582" opacity="1.000000" stroke="none" d="
M276.856995,432.163422 
	C246.675705,367.750000 282.379303,294.994568 351.426941,279.564941 
	C412.481781,265.921478 472.934296,308.352112 480.832001,370.392273 
	C488.493378,430.575806 444.526978,485.719452 384.498138,491.216400 
	C338.719238,495.408478 298.263397,473.313568 276.856995,432.163422 
M368.637756,464.159424 
	C373.959534,464.045074 379.346100,464.426483 384.593170,463.740570 
	C444.239624,455.943512 473.687225,386.115448 437.977203,337.355774 
	C418.556061,310.837494 384.942383,298.881653 353.430359,307.283844 
	C321.548706,315.784576 298.637543,342.283539 294.785309,375.112549 
	C289.452423,420.559723 322.947205,461.444885 368.637756,464.159424 
z" data-index="2" style="opacity: 1;"></path>
<path fill="#F41C7C" opacity="1.000000" stroke="none" d="
M210.033478,795.502502 
	C212.113815,795.140259 214.441360,795.011169 216.768890,795.011047 
	C360.973846,795.002258 505.178894,794.910400 649.383545,795.117554 
	C668.507446,795.145020 686.508484,791.144531 704.026611,784.008240 
	C705.084473,783.577271 706.229248,783.359680 707.726685,783.065796 
	C689.892334,792.611938 670.347107,796.569336 649.940002,796.590820 
	C604.301575,796.638794 558.663025,796.582153 513.024536,796.551331 
	C414.085785,796.484436 315.147064,796.410095 216.208328,796.311584 
	C214.232285,796.309631 212.256546,795.975220 210.033478,795.502502 
z" data-index="3"></path>
<path fill="#FD016E" opacity="1.000000" stroke="none" d="
M789.997559,652.017090 
	C789.998291,546.142090 789.996094,440.267059 790.022522,334.392029 
	C790.023010,332.431976 790.363464,330.472015 790.903076,328.269928 
	C791.247864,370.299011 791.236511,412.570160 791.221558,454.841309 
	C791.198486,520.251404 791.172913,585.661560 790.820618,651.541626 
	C790.492798,652.011597 789.997559,652.017090 789.997559,652.017090 
z" data-index="4"></path>
<path fill="#FD016E" opacity="1.000000" stroke="none" d="
M779.929321,230.055664 
	C777.861938,230.368515 775.794678,230.953659 773.727112,230.954910 
	C697.130493,231.001343 620.533936,230.993713 543.470459,230.765289 
	C543.003601,230.537125 543.016541,230.079788 543.016541,230.079788 
	C543.393738,229.989059 543.770935,229.898315 544.712585,229.901733 
	C545.806763,229.879166 546.336426,229.762451 546.866150,229.645752 
	C550.319641,229.557358 553.773071,229.468948 558.041870,229.657928 
	C559.519165,229.979630 560.181213,230.062759 560.843201,230.062836 
	C621.875183,230.069458 682.907104,230.072525 743.939087,230.051727 
	C745.243408,230.051285 746.547546,229.771591 747.851807,229.622192 
	C748.368408,229.554489 748.885010,229.486755 750.139771,229.684235 
	C760.561707,229.984848 770.245544,230.020264 779.929321,230.055664 
z" data-index="5"></path>
<path fill="#F41C7C" opacity="1.000000" stroke="none" d="
M747.417297,229.473206 
	C746.547546,229.771591 745.243408,230.051285 743.939087,230.051727 
	C682.907104,230.072525 621.875183,230.069458 560.843201,230.062836 
	C560.181213,230.062759 559.519165,229.979630 558.501892,229.763000 
	C558.963562,229.472443 559.780518,229.250427 560.597473,229.250610 
	C622.725891,229.263916 684.854370,229.294754 747.417297,229.473206 
z" data-index="6"></path>
<path fill="#F41C7C" opacity="1.000000" stroke="none" d="
M780.404846,230.036285 
	C770.245544,230.020264 760.561707,229.984848 750.520508,229.786041 
	C768.298706,229.125214 786.433838,228.614059 804.569885,228.135345 
	C815.985413,227.834015 827.221497,228.763626 837.817383,233.495743 
	C840.237976,234.576767 842.520813,235.966431 845.047668,237.501892 
	C842.336731,236.633270 839.536621,235.059174 836.535706,234.401962 
	C828.835388,232.715652 821.095215,230.693100 813.280151,230.174973 
	C802.524048,229.461868 791.684265,230.009445 780.404846,230.036285 
z" data-index="7"></path>
<path fill="#FD016E" opacity="1.000000" stroke="none" d="
M437.575562,512.035461 
	C436.708496,512.416809 435.459381,512.960144 434.209656,512.961670 
	C399.075867,513.004700 363.942078,512.993652 328.808258,512.984436 
	C328.253143,512.984314 327.697998,512.897644 327.130249,512.192017 
	C327.884125,512.122070 328.638000,512.052185 330.117065,511.945862 
	C332.254852,511.702332 333.667480,511.495209 335.080078,511.288025 
	C335.490540,511.301849 335.901031,511.315643 336.971130,511.584717 
	C348.115692,511.690765 358.600616,511.541595 369.085571,511.392426 
	C370.109497,511.372284 371.133392,511.352142 372.893738,511.580536 
	C378.765991,511.894104 383.902222,512.037964 389.037506,512.009155 
	C403.784637,511.926453 418.531342,511.773895 433.278229,511.648804 
	C434.583221,511.747498 435.888184,511.846222 437.575562,512.035461 
z" data-index="8"></path>
<path fill="#F41C7C" opacity="1.000000" stroke="none" d="
M789.999329,652.469116 
	C789.997559,652.017090 790.492798,652.011597 790.740356,652.004333 
	C790.862244,673.349365 785.485229,693.479797 776.552856,713.051514 
	C778.119202,707.651978 780.031433,702.069824 781.790894,696.440002 
	C786.223450,682.257568 789.698730,667.886414 789.999329,652.469116 
z" data-index="9"></path>
<path fill="#F41C7C" opacity="1.000000" stroke="none" d="
M868.401489,309.192352 
	C868.418640,305.403259 868.844299,301.311554 868.978027,297.210358 
	C869.423889,283.540985 867.273254,270.300323 862.148804,257.195251 
	C864.548584,264.457062 868.127930,271.975922 869.006165,279.798065 
	C870.079773,289.360962 868.888245,299.178162 868.401489,309.192352 
z" data-index="10"></path>
<path fill="#EF5FA4" opacity="1.000000" stroke="none" d="
M432.912842,511.419525 
	C418.531342,511.773895 403.784637,511.926453 389.037506,512.009155 
	C383.902222,512.037964 378.765991,511.894104 373.276794,511.611694 
	C385.673035,511.266235 398.422424,511.093628 411.172424,511.027466 
	C418.296967,510.990509 425.422424,511.130188 432.912842,511.419525 
z" data-index="11"></path>
<path fill="#F41C7C" opacity="1.000000" stroke="none" d="
M791.604431,328.111542 
	C791.953430,327.576691 792.745300,326.229736 793.509216,326.245361 
	C805.104309,326.482666 816.695740,326.898560 828.615845,327.515137 
	C816.640503,327.816162 804.337402,327.874695 791.604431,328.111542 
z" data-index="12"></path>
<path fill="#EF5FA4" opacity="1.000000" stroke="none" d="
M368.630859,511.246887 
	C358.600616,511.541595 348.115692,511.690765 337.276855,511.623291 
	C347.340698,511.304871 357.758423,511.203125 368.630859,511.246887 
z" data-index="13"></path>
<path fill="#F41C7C" opacity="1.000000" stroke="none" d="
M831.504883,327.840363 
	C833.613464,327.506775 836.203735,327.392761 838.742676,326.970367 
	C844.039246,326.089233 849.308838,325.045105 855.018433,324.098755 
	C848.168884,328.797852 839.993042,327.906342 831.504883,327.840363 
z" data-index="14"></path>
<path fill="#F41C7C" opacity="1.000000" stroke="none" d="
M535.518250,231.769196 
	C533.160156,233.148148 530.427002,234.561920 527.313965,235.966370 
	C529.670410,234.572723 532.406799,233.188370 535.518250,231.769196 
z" data-index="15"></path>
<path fill="#F41C7C" opacity="1.000000" stroke="none" d="
M708.410095,783.088257 
	C710.220032,781.812927 712.388123,780.490662 714.927368,779.242798 
	C713.121765,780.558533 710.945007,781.799927 708.410095,783.088257 
z" data-index="16"></path>
<path fill="#FD016E" opacity="1.000000" stroke="none" d="
M322.908936,511.938477 
	C320.142822,512.170044 317.376678,512.401611 314.323181,512.364014 
	C314.712860,511.971802 315.389954,511.848785 316.646301,511.818329 
	C317.519226,511.773193 317.812866,511.635529 318.106476,511.497864 
	C318.508728,511.433655 318.911011,511.369476 319.867279,511.491089 
	C321.250519,511.764130 322.079712,511.851288 322.908936,511.938477 
z" data-index="17"></path>
<path fill="#F41C7C" opacity="1.000000" stroke="none" d="
M772.603394,721.114380 
	C773.118469,719.334961 773.908020,717.362549 775.052979,715.314819 
	C774.564880,717.133423 773.721375,719.027344 772.603394,721.114380 
z" data-index="18"></path>
<path fill="#F41C7C" opacity="1.000000" stroke="none" d="
M542.628784,230.023682 
	C543.016541,230.079788 543.003601,230.537125 543.001831,230.765808 
	C540.879211,231.306870 538.758484,231.619232 536.225220,231.875366 
	C537.955505,231.201965 540.098267,230.584778 542.628784,230.023682 
z" data-index="19"></path>
<path fill="#F41C7C" opacity="1.000000" stroke="none" d="
M851.835876,242.724197 
	C850.756653,242.150314 849.519653,241.296829 848.193359,240.113312 
	C849.295471,240.670380 850.486755,241.557480 851.835876,242.724197 
z" data-index="20"></path>
<path fill="#F41C7C" opacity="1.000000" stroke="none" d="
M746.441101,756.129822 
	C746.952454,755.251404 747.766968,754.263000 748.906555,753.199341 
	C748.402588,754.089417 747.573425,755.054626 746.441101,756.129822 
z" data-index="21"></path>
<path fill="#EF5FA4" opacity="1.000000" stroke="none" d="
M334.669586,511.144958 
	C333.667480,511.495209 332.254852,511.702332 330.476074,511.915405 
	C330.109955,511.921356 330.030182,511.524719 329.982819,511.328064 
	C331.376678,511.088196 332.817871,511.045013 334.669586,511.144958 
z" data-index="22"></path>
<path fill="#F41C7C" opacity="1.000000" stroke="none" d="
M754.278809,747.859497 
	C754.548950,747.098389 755.098328,746.199036 755.987793,745.255371 
	C755.737854,746.047791 755.147888,746.884521 754.278809,747.859497 
z" data-index="23"></path>
<path fill="#F41C7C" opacity="1.000000" stroke="none" d="
M750.414551,752.069702 
	C750.568970,751.497253 750.999939,750.807495 751.775513,750.097290 
	C751.643860,750.702087 751.167419,751.327271 750.414551,752.069702 
z" data-index="24"></path>
<path fill="#F41C7C" opacity="1.000000" stroke="none" d="
M863.257629,317.816315 
	C863.511902,317.070160 864.039490,316.173370 864.886597,315.184998 
	C864.647766,315.950806 864.089294,316.808228 863.257629,317.816315 
z" data-index="25"></path>
<path fill="#F41C7C" opacity="1.000000" stroke="none" d="
M758.347290,742.951538 
	C758.578308,742.167725 759.086609,741.231323 759.932129,740.218628 
	C759.721130,741.027954 759.172852,741.913391 758.347290,742.951538 
z" data-index="26"></path>
<path fill="#F41C7C" opacity="1.000000" stroke="none" d="
M767.450256,730.035950 
	C767.612732,729.229614 768.050293,728.261475 768.806763,727.169556 
	C768.658936,727.988586 768.192139,728.931396 767.450256,730.035950 
z" data-index="27"></path>
<path fill="#F41C7C" opacity="1.000000" stroke="none" d="
M866.529358,313.070282 
	C866.641724,312.270416 867.014099,311.288391 867.685669,310.149963 
	C867.586304,310.958435 867.187866,311.923279 866.529358,313.070282 
z" data-index="28"></path>
<path fill="#F41C7C" opacity="1.000000" stroke="none" d="
M526.665161,235.993622 
	C526.173767,236.601761 525.372803,237.271500 524.238831,237.956207 
	C524.722351,237.332520 525.538940,236.693863 526.665161,235.993622 
z" data-index="29"></path>
<path fill="#F41C7C" opacity="1.000000" stroke="none" d="
M741.349121,761.010071 
	C741.539124,760.444092 742.014893,759.786194 742.835327,759.128601 
	C742.664856,759.725342 742.149841,760.321716 741.349121,761.010071 
z" data-index="30"></path>
<path fill="#F41C7C" opacity="1.000000" stroke="none" d="
M737.510986,764.233154 
	C737.922302,763.568848 738.631714,762.814880 739.678711,762.035095 
	C739.280518,762.720703 738.544861,763.432068 737.510986,764.233154 
z" data-index="31"></path>
<path fill="#F41C7C" opacity="1.000000" stroke="none" d="
M727.338013,772.026733 
	C727.805115,771.414429 728.575500,770.733154 729.671997,770.028564 
	C729.212463,770.656067 728.426880,771.306885 727.338013,772.026733 
z" data-index="32"></path>
<path fill="#F41C7C" opacity="1.000000" stroke="none" d="
M721.328369,775.998169 
	C721.821594,775.393433 722.624512,774.732483 723.759644,774.065796 
	C723.273987,774.687378 722.455994,775.314636 721.328369,775.998169 
z" data-index="33"></path>
<path fill="#F41C7C" opacity="1.000000" stroke="none" d="
M857.217285,248.604736 
	C856.573975,248.171143 855.816650,247.442261 855.019897,246.376663 
	C855.688110,246.796432 856.395691,247.552933 857.217285,248.604736 
z" data-index="34"></path>
<path fill="#F41C7C" opacity="1.000000" stroke="none" d="
M744.423096,758.130005 
	C744.622375,757.578247 745.113892,756.922791 745.923401,756.202637 
	C745.732666,756.767395 745.223999,757.396790 744.423096,758.130005 
z" data-index="35"></path>
<path fill="#F41C7C" opacity="1.000000" stroke="none" d="
M853.886475,244.728027 
	C853.358826,244.548065 852.719604,244.097015 852.038574,243.326080 
	C852.589417,243.489761 853.182129,243.973343 853.886475,244.728027 
z" data-index="36"></path>
<path fill="#EF5FA4" opacity="1.000000" stroke="none" d="
M322.944305,511.737122 
	C322.079712,511.851288 321.250519,511.764130 320.173035,511.483032 
	C320.709991,511.182800 321.495239,511.076477 322.673431,511.053223 
	C323.066406,511.136261 322.979675,511.535797 322.944305,511.737122 
z" data-index="37"></path>
<path fill="#F41C7C" opacity="1.000000" stroke="none" d="
M862.211304,256.593994 
	C861.821472,256.228119 861.394653,255.556442 860.938416,254.558136 
	C861.330688,254.917053 861.752502,255.602615 862.211304,256.593994 
z" data-index="38"></path>
<path fill="#F41C7C" opacity="1.000000" stroke="none" d="
M208.080200,794.280762 
	C208.492798,794.243958 209.073990,794.459106 209.761978,794.980957 
	C209.328766,795.036011 208.788788,794.784363 208.080200,794.280762 
z" data-index="39"></path>

<path fill="#F41C7C" opacity="1.000000" stroke="none" d="
M859.264404,251.530014 
	C858.908875,251.397263 858.490051,250.965973 858.055969,250.205841 
	C858.427490,250.328491 858.814270,250.779984 859.264404,251.530014 
z" data-index="41"></path>
<path fill="#F41C7C" opacity="1.000000" stroke="none" d="
M715.518188,779.329712 
	C715.656189,778.961853 716.095703,778.545227 716.875244,778.163574 
	C716.750122,778.559326 716.284851,778.920105 715.518188,779.329712 
z" data-index="42"></path>
<path fill="#F41C7C" opacity="1.000000" stroke="none" d="
M717.424255,778.220703 
	C717.575867,777.877258 718.028931,777.483826 718.810425,777.096802 
	C718.667786,777.459106 718.196716,777.814941 717.424255,778.220703 
z" data-index="43"></path>
<path fill="#F41C7C" opacity="1.000000" stroke="none" d="
M719.353027,777.118774 
	C719.512817,776.792664 719.970581,776.426147 720.741760,776.046387 
	C720.587097,776.381531 720.119019,776.729919 719.353027,777.118774 
z" data-index="44"></path>
<path fill="#F41C7C" opacity="1.000000" stroke="none" d="
M725.439941,773.235718 
	C725.575256,772.887512 726.007812,772.481384 726.764099,772.066406 
	C726.637634,772.431030 726.187317,772.804382 725.439941,773.235718 
z" data-index="45"></path>
<path fill="#F41C7C" opacity="1.000000" stroke="none" d="
M732.408569,768.432251 
	C732.528259,768.070679 732.939392,767.583984 733.693604,767.058716 
	C733.591125,767.449097 733.145569,767.878113 732.408569,768.432251 
z" data-index="46"></path>
<path fill="#F41C7C" opacity="1.000000" stroke="none" d="
M846.916504,238.695770 
	C846.495789,238.743790 845.918213,238.534439 845.236328,238.019806 
	C845.674500,237.955795 846.217041,238.197083 846.916504,238.695770 
z" data-index="47"></path>
<path fill="#F41C7C" opacity="1.000000" stroke="none" d="
M865.411865,315.022583 
	C865.329224,314.571411 865.514221,313.967499 866.020020,313.266663 
	C866.120422,313.736420 865.900024,314.303131 865.411865,315.022583 
z" data-index="48"></path>
<path fill="#F41C7C" opacity="1.000000" stroke="none" d="
M858.395630,322.176819 
	C858.515381,321.838898 858.918030,321.440674 859.622681,321.003418 
	C859.509277,321.348419 859.093933,321.732452 858.395630,322.176819 
z" data-index="49"></path>
<path fill="#F41C7C" opacity="1.000000" stroke="none" d="
M775.604126,715.096313 
	C775.474426,714.646973 775.586792,714.016296 776.031250,713.285278 
	C776.190918,713.761719 776.018494,714.338318 775.604126,715.096313 
z" data-index="50"></path>
<path fill="#F41C7C" opacity="1.000000" stroke="none" d="
M771.502441,723.079224 
	C771.402039,722.619568 771.562256,721.999573 772.057251,721.297974 
	C772.182312,721.783875 771.972717,722.351440 771.502441,723.079224 
z" data-index="51"></path>
<path fill="#F41C7C" opacity="1.000000" stroke="none" d="
M770.429199,725.028564 
	C770.336853,724.580200 770.507751,723.971375 770.995850,723.254517 
	C771.106262,723.720459 770.899353,724.294250 770.429199,725.028564 
z" data-index="52"></path>
<path fill="#F41C7C" opacity="1.000000" stroke="none" d="
M769.334717,726.945190 
	C769.266785,726.524414 769.452393,725.935059 769.935303,725.219116 
	C770.017761,725.653931 769.803040,726.215332 769.334717,726.945190 
z" data-index="53"></path>
<path fill="#F41C7C" opacity="1.000000" stroke="none" d="
M762.236328,737.809570 
	C762.242798,737.414612 762.499207,736.854248 763.061768,736.196045 
	C763.074036,736.613464 762.780090,737.128784 762.236328,737.809570 
z" data-index="54"></path>
<path fill="#F41C7C" opacity="1.000000" stroke="none" d="
M764.290161,734.938721 
	C764.247009,734.520447 764.457947,733.934326 764.976318,733.238647 
	C765.037231,733.676392 764.790771,734.223633 764.290161,734.938721 
z" data-index="55"></path>
<path fill="#F41C7C" opacity="1.000000" stroke="none" d="
M766.302368,731.912354 
	C766.248962,731.497437 766.447998,730.917603 766.945068,730.219666 
	C767.013672,730.650208 766.784180,731.198730 766.302368,731.912354 
z" data-index="56"></path>
<path fill="#F41C7C" opacity="1.000000" stroke="none" d="
M735.341736,766.087769 
	C735.281799,765.866699 735.488647,765.569824 735.968506,765.207336 
	C736.030579,765.431885 735.819580,765.721985 735.341736,766.087769 
z" data-index="57"></path>

<path fill="#F41C7C" opacity="1.000000" stroke="none" d="
M854.880676,245.778625 
	C854.643799,245.904694 854.391846,245.713287 854.102112,245.220917 
	C854.348328,245.064972 854.615417,245.245361 854.880676,245.778625 
z" data-index="59"></path>
<path fill="#F41C7C" opacity="1.000000" stroke="none" d="
M860.041138,252.694244 
	C859.815002,252.734253 859.543030,252.501709 859.236816,251.992981 
	C859.466858,251.951752 859.731079,252.186722 860.041138,252.694244 
z" data-index="60"></path>
<path fill="#F41C7C" opacity="1.000000" stroke="none" d="
M724.308228,774.040405 
	C724.262817,773.818665 724.487793,773.541138 724.985596,773.215088 
	C725.031860,773.439331 724.805298,773.712036 724.308228,774.040405 
z" data-index="61"></path>
<path fill="#F41C7C" opacity="1.000000" stroke="none" d="
M857.295776,323.035797 
	C857.245483,322.820038 857.463501,322.538361 857.948608,322.190247 
	C857.998474,322.405853 857.781311,322.687866 857.295776,323.035797 
z" data-index="62"></path>
<path fill="#F41C7C" opacity="1.000000" stroke="none" d="
M860.796387,253.797333 
	C860.538818,253.885635 860.321228,253.659943 860.107910,253.136169 
	C860.366516,253.027466 860.607910,253.242538 860.796387,253.797333 
z" data-index="63"></path>
<path fill="#F41C7C" opacity="1.000000" stroke="none" d="
M730.274902,769.943115 
	C730.245178,769.736328 730.484009,769.472412 730.987427,769.140869 
	C731.015808,769.344177 730.779602,769.615112 730.274902,769.943115 
z" data-index="64"></path>
<path fill="#F41C7C" opacity="1.000000" stroke="none" d="
M765.416992,733.136719 
	C765.309143,732.926025 765.451416,732.601379 765.837158,732.152893 
	C765.942810,732.360229 765.804993,732.691467 765.416992,733.136719 
z" data-index="65"></path>
<path fill="#F41C7C" opacity="1.000000" stroke="none" d="
M734.272400,766.971008 
	C734.227722,766.768433 734.442200,766.499939 734.909241,766.154785 
	C734.951721,766.353760 734.741638,766.629456 734.272400,766.971008 
z" data-index="66"></path>
<path fill="#F41C7C" opacity="1.000000" stroke="none" d="
M760.408813,740.133362 
	C760.310852,739.921631 760.464539,739.598206 760.870117,739.160400 
	C760.968018,739.371277 760.814209,739.696472 760.408813,740.133362 
z" data-index="67"></path>
<path fill="#F41C7C" opacity="1.000000" stroke="none" d="
M736.412354,765.171326 
	C736.338440,764.934387 736.532593,764.618958 737.013550,764.256287 
	C737.093750,764.503662 736.887085,764.798218 736.412354,765.171326 
z" data-index="68"></path>
<path fill="#F41C7C" opacity="1.000000" stroke="none" d="
M848.098877,239.631317 
	C847.890381,239.725586 847.577576,239.566635 847.146606,239.165634 
	C847.350403,239.075073 847.672546,239.226593 848.098877,239.631317 
z" data-index="69"></path>
<path fill="#F41C7C" opacity="1.000000" stroke="none" d="
M740.258789,761.946594 
	C740.212524,761.751587 740.418640,761.486389 740.866211,761.133301 
	C740.908813,761.322327 740.709961,761.599365 740.258789,761.946594 
z" data-index="70"></path>
<path fill="#F41C7C" opacity="1.000000" stroke="none" d="
M743.357849,759.104492 
	C743.288818,758.881653 743.486145,758.577271 743.954834,758.198730 
	C744.025574,758.423950 743.824890,758.723450 743.357849,759.104492 
z" data-index="71"></path>
<path fill="#F41C7C" opacity="1.000000" stroke="none" d="
M761.292725,739.013184 
	C761.214966,738.829163 761.375122,738.536865 761.755615,738.118103 
	C761.827515,738.296021 761.679077,738.600464 761.292725,739.013184 
z" data-index="72"></path>
<path fill="#F41C7C" opacity="1.000000" stroke="none" d="
M749.391907,753.129883 
	C749.307373,752.908020 749.484802,752.591858 749.928162,752.184814 
	C750.014038,752.407776 749.833984,752.721619 749.391907,753.129883 
z" data-index="73"></path>
<path fill="#F41C7C" opacity="1.000000" stroke="none" d="
M861.239990,319.915009 
	C861.100098,319.673004 861.287903,319.409729 861.789429,319.106201 
	C861.833679,319.277039 861.655273,319.552917 861.239990,319.915009 
z" data-index="74"></path>
<path fill="#F41C7C" opacity="1.000000" stroke="none" d="
M752.302002,750.024048 
	C752.233826,749.830994 752.412231,749.538269 752.829041,749.136230 
	C752.894470,749.326050 752.721497,749.625244 752.302002,750.024048 
z" data-index="75"></path>
<path fill="#F41C7C" opacity="1.000000" stroke="none" d="
M753.265381,748.968262 
	C753.203552,748.788879 753.377136,748.509094 753.774170,748.114868 
	C753.831970,748.289551 753.666382,748.578674 753.265381,748.968262 
z" data-index="76"></path>
<path fill="#F41C7C" opacity="1.000000" stroke="none" d="
M860.219116,320.869171 
	C860.097229,320.623230 860.293640,320.379028 860.784180,320.099670 
	C860.941162,320.351990 860.760864,320.620789 860.219116,320.869171 
z" data-index="77"></path>
<path fill="#F41C7C" opacity="1.000000" stroke="none" d="
M756.481995,745.199219 
	C756.373962,744.967102 756.525085,744.631653 756.949219,744.204468 
	C757.061951,744.440430 756.901550,744.768188 756.481995,745.199219 
z" data-index="78"></path>
<path fill="#F41C7C" opacity="1.000000" stroke="none" d="
M757.376709,744.106812 
	C757.287048,743.897827 757.449585,743.581726 757.862305,743.154053 
	C757.951233,743.361511 757.790100,743.680603 757.376709,744.106812 
z" data-index="79"></path>

<path fill="#FBFCFE" opacity="1.000000" stroke="none" d="
M521.979980,768.989868 
	C519.090393,769.000061 516.200745,769.018982 513.311157,769.019165 
	C421.168915,769.023804 329.026672,769.026794 236.884415,769.029968 
	C234.412704,769.030090 231.940994,769.030029 228.988739,769.030029 
	C228.988739,767.540222 228.989044,765.741943 228.988693,763.943726 
	C228.980453,722.621399 229.399307,681.292969 228.813843,639.978821 
	C228.422760,612.382751 239.001053,589.778809 257.611328,570.485718 
	C274.519531,552.957214 295.118744,542.008179 319.401947,538.511841 
	C322.678894,538.039978 326.040924,538.029663 329.363800,538.026611 
	C359.189178,537.999329 389.014923,538.112915 418.839905,538.003906 
	C450.330536,537.888794 475.911926,550.693848 496.629333,573.715881 
	C510.171661,588.764648 519.163086,606.177368 521.500854,627.429810 
	C521.675964,646.025391 521.734070,663.830872 521.778198,681.636353 
	C521.850281,710.754211 521.913208,739.872009 521.979980,768.989868 
z" data-index="81" style="opacity: 1; visibility: hidden;"></path>

<path fill="#FD016E" opacity="1.000000" stroke="none" d="
M764.696594,617.203613 
	C764.598450,602.918701 764.421021,588.633789 764.416809,574.348877 
	C764.402710,526.809082 764.450928,479.269318 764.708862,431.064941 
	C764.863708,429.662140 764.784912,428.923950 764.706116,428.185760 
	C764.631409,411.026978 764.556641,393.868225 764.722412,375.977509 
	C764.880737,373.899994 764.798462,372.554413 764.716187,371.208832 
	C764.630432,365.046722 764.544739,358.884644 764.704468,351.990967 
	C764.860229,349.902863 764.770630,348.546326 764.681030,347.189789 
	C764.601074,345.684387 764.521057,344.178955 764.703369,341.874390 
	C764.859314,335.443176 764.752869,329.811127 764.646423,324.179108 
	C764.576599,320.699463 764.506775,317.219788 764.678894,313.081451 
	C764.839722,311.671936 764.758606,310.921143 764.677490,310.170319 
	C764.757629,303.403778 764.837708,296.637207 765.019897,289.453796 
	C765.414673,290.784912 765.962891,292.532776 765.963501,294.280853 
	C766.003540,409.690186 766.003357,525.099548 765.962219,640.508850 
	C765.961609,642.237183 765.406616,643.965271 764.752686,645.827087 
	C764.396240,644.523804 764.397400,643.086914 764.658813,640.973022 
	C764.831787,638.923645 764.744568,637.551208 764.657471,636.178833 
	C764.591003,632.354980 764.524597,628.531189 764.709290,623.939819 
	C764.872498,621.182739 764.784546,619.193176 764.696594,617.203613 
z" data-index="83"></path>
<path fill="#FD016E" opacity="1.000000" stroke="none" d="
M547.647827,625.325928 
	C548.165405,627.501221 548.604553,629.979736 548.606323,632.458435 
	C548.637390,676.057190 548.615173,719.656006 548.490601,763.728455 
	C548.111572,765.428650 547.846375,766.655151 547.581177,767.881653 
	C547.388245,767.883545 547.195374,767.885437 547.002441,767.887329 
	C547.002441,766.009705 547.002441,764.132019 547.002441,762.254395 
	C547.002625,718.523621 546.998535,674.792908 547.018433,631.062134 
	C547.019226,629.251099 547.244934,627.440247 547.647827,625.325928 
z" data-index="84"></path>
<path fill="#FD016E" opacity="1.000000" stroke="none" d="
M522.283325,768.702637 
	C521.913208,739.872009 521.850281,710.754211 521.778198,681.636353 
	C521.734070,663.830872 521.675964,646.025391 521.702393,627.782166 
	C521.968201,626.254639 522.155762,625.164856 522.343384,624.075073 
	C522.507324,624.086609 522.671204,624.098145 522.835144,624.109680 
	C522.889282,625.192078 522.990601,626.274536 522.990784,627.356934 
	C522.999512,673.069397 523.002563,718.781799 522.982605,764.494263 
	C522.982056,765.801331 522.724487,767.108337 522.283325,768.702637 
z" data-index="85"></path>

<path fill="#FD1582" opacity="1.000000" stroke="none" d="
M657.569580,436.768341 
	C649.370361,434.062958 646.136963,429.792542 646.093323,421.545593 
	C646.014099,406.569183 646.070862,391.592041 646.070862,375.897858 
	C644.038269,375.897858 642.281189,375.896515 640.524048,375.898102 
	C626.693115,375.910431 612.861511,376.007996 599.031555,375.899048 
	C592.477051,375.847443 587.172180,371.449402 585.990723,365.566772 
	C584.686951,359.075104 587.263855,352.907562 592.868713,350.403259 
	C595.194397,349.364136 598.005615,349.056641 600.601135,349.035400 
	C615.561890,348.912903 630.524170,348.975647 646.058044,348.975647 
	C646.058044,341.496399 646.052063,334.389832 646.059753,327.283264 
	C646.067932,319.784698 645.944885,312.282318 646.142883,304.788574 
	C646.367004,296.310242 651.777466,290.722168 659.696960,290.401825 
	C666.870911,290.111633 672.848267,295.232452 673.439758,303.393036 
	C674.076660,312.180359 673.732300,321.040039 673.780273,329.868347 
	C673.813660,336.020782 673.786682,342.173553 673.786682,348.973114 
	C675.623840,348.973114 677.228149,348.972748 678.832458,348.973206 
	C692.496765,348.976898 706.161255,348.938080 719.825317,349.000610 
	C727.972717,349.037933 733.268982,354.350372 733.389954,362.406372 
	C733.505737,370.113312 727.860046,375.824219 719.794495,375.878113 
	C706.297424,375.968292 692.799316,375.908051 679.301636,375.911011 
	C677.663513,375.911377 676.025330,375.911072 673.787842,375.911072 
	C673.787842,381.895935 673.797363,387.497253 673.785706,393.098541 
	C673.765991,402.596649 673.884033,412.098297 673.664307,421.591949 
	C673.431335,431.657013 667.702087,437.068420 657.569580,436.768341 
z" data-index="87" style="opacity: 1;"></path>
<path fill="#FD1481" opacity="1.000000" stroke="none" d="
M638.000000,544.054138 
	C666.129700,544.054932 693.759460,544.018250 721.389038,544.083374 
	C728.855591,544.101013 734.123047,548.642395 734.973206,555.403992 
	C735.854736,562.415039 732.027405,568.679138 725.546997,570.508240 
	C723.822754,570.994995 721.934631,571.049744 720.121521,571.050964 
	C673.517212,571.082336 626.912903,571.093506 580.308594,571.072632 
	C571.261169,571.068604 565.221008,565.517578 565.237244,557.402954 
	C565.253174,549.435547 571.374573,544.076477 580.576050,544.064819 
	C599.550720,544.040710 618.525330,544.055847 638.000000,544.054138 
z" data-index="88"></path>
<path fill="#FD1481" opacity="1.000000" stroke="none" d="
M719.728760,505.969360 
	C672.938782,505.966827 626.616211,505.976990 580.293579,505.945770 
	C571.534607,505.939850 566.052490,500.927490 565.775696,492.885895 
	C565.495239,484.738129 570.945129,479.009064 579.329895,478.986755 
	C607.656494,478.911438 635.983337,478.932098 664.310120,478.925995 
	C682.805847,478.921997 701.301514,478.922791 719.797241,478.945984 
	C728.838562,478.957336 734.446167,483.976746 734.677551,492.192841 
	C734.897522,500.003540 729.105774,505.512634 719.728760,505.969360 
z" data-index="89"></path>
<path fill="#FE1482" opacity="1.000000" stroke="none" d="
M577.007629,635.898438 
	C568.708740,634.535767 564.369812,629.208069 564.945068,621.086731 
	C565.442078,614.068298 571.176208,609.050354 578.929443,609.045776 
	C626.062805,609.018066 673.196228,609.017395 720.329590,609.034790 
	C728.315430,609.037781 733.639099,613.070435 734.920898,619.911255 
	C736.281799,627.173767 732.576294,632.961243 724.016479,635.606567 
	C722.357483,635.218994 721.375122,635.016235 720.392578,635.015869 
	C674.008423,635.000305 627.624207,634.994568 581.240112,635.040161 
	C579.828979,635.041504 578.418457,635.599731 577.007629,635.898438 
z" data-index="90"></path>
<path fill="#FE1582" opacity="1.000000" stroke="none" d="
M706.948914,681.164429 
	C714.237488,683.063293 718.274292,688.703430 717.423584,695.799255 
	C716.573608,702.888977 711.317566,707.737793 703.833862,707.885620 
	C695.171997,708.056885 686.504028,707.913391 677.838745,707.915649 
	C653.675842,707.922058 629.512756,707.990601 605.350098,707.916809 
	C594.300598,707.883057 587.129639,698.737854 591.266479,689.383362 
	C592.715210,686.107483 596.610291,683.913513 600.061279,681.473877 
	C601.389282,681.813599 602.044250,681.984314 602.699341,681.984619 
	C636.192566,681.997803 669.685791,682.005554 703.178955,681.961609 
	C704.435974,681.959961 705.692261,681.441833 706.948914,681.164429 
z" data-index="91"></path>
<path fill="#F41C7C" opacity="1.000000" stroke="none" d="
M577.469482,635.983521 
	C578.418457,635.599731 579.828979,635.041504 581.240112,635.040161 
	C627.624207,634.994568 674.008423,635.000305 720.392578,635.015869 
	C721.375122,635.016235 722.357483,635.218994 723.657288,635.590210 
	C722.985657,635.938965 721.996643,636.100037 721.007690,636.099976 
	C673.315613,636.098328 625.623474,636.082703 577.469482,635.983521 
z" data-index="92"></path>
<path fill="#FD016E" opacity="1.000000" stroke="none" d="
M706.494385,681.056641 
	C705.692261,681.441833 704.435974,681.959961 703.178955,681.961609 
	C669.685791,682.005554 636.192566,681.997803 602.699341,681.984619 
	C602.044250,681.984314 601.389282,681.813599 600.410156,681.478394 
	C601.073364,681.112915 602.060608,680.884949 603.047913,680.885193 
	C637.378601,680.893127 671.709229,680.922485 706.494385,681.056641 
z" data-index="93"></path>

<path fill="#FE1582" opacity="1.000000" stroke="none" d="
M764.542847,617.592407 
	C764.784546,619.193176 764.872498,621.182739 764.828064,623.476074 
	C764.593506,621.846924 764.491333,619.914062 764.542847,617.592407 
z" data-index="95" style="visibility: hidden;"></path>

<path fill="#FE1582" opacity="1.000000" stroke="none" d="
M764.508911,636.545898 
	C764.744568,637.551208 764.831787,638.923645 764.774658,640.556702 
	C764.540283,639.515869 764.450378,638.214417 764.508911,636.545898 
z" data-index="97" style="visibility: hidden;"></path>

<path fill="#FE1582" opacity="1.000000" stroke="none" d="
M764.554871,428.495850 
	C764.784912,428.923950 764.863708,429.662140 764.828735,430.599182 
	C764.611084,430.134003 764.507385,429.469971 764.554871,428.495850 
z" data-index="99" style="visibility: hidden;"></path>

</svg>