<svg version="1.1" id="Layer_1" xmlns="http://www.w3.org/2000/svg" xmlns:xlink="http://www.w3.org/1999/xlink" x="0px" y="0px" width="100%" viewBox="0 0 1024 1024" enable-background="new 0 0 1024 1024" xml:space="preserve">

<path fill="#02C9FF" opacity="1.000000" stroke="none" d="
M340.719727,508.919617 
	C359.028320,507.919098 375.359863,511.954773 389.993408,524.664124 
	C389.993408,521.984253 389.993439,520.246887 389.993378,518.509521 
	C389.992645,487.677917 390.122192,456.845276 389.885254,426.015503 
	C389.835724,419.572479 392.114685,415.425751 397.624573,412.232635 
	C426.018463,395.777863 454.322754,379.167908 482.577667,362.475616 
	C484.339783,361.434509 486.487518,359.312805 486.623108,357.552673 
	C487.201263,350.047089 490.960419,344.431732 496.075226,339.476715 
	C517.440308,318.779083 561.156860,319.007996 581.584961,340.425781 
	C585.581116,344.615540 587.618713,350.814178 590.021240,356.321198 
	C591.152222,358.913666 591.822571,361.167328 594.654846,362.702637 
	C605.145020,368.389160 615.382080,374.541687 625.853699,380.264008 
	C627.857788,381.359131 630.580200,381.956635 632.824036,381.662201 
	C646.216248,379.905029 659.322876,380.522308 671.934204,385.707214 
	C680.892090,389.390045 688.533508,395.000214 693.532288,403.384888 
	C695.475098,406.643494 696.498840,410.732056 696.889160,414.550079 
	C697.236877,417.951263 698.414001,419.586823 701.386536,421.268768 
	C721.300720,432.536896 741.013611,444.160004 760.869446,455.532440 
	C765.907898,458.418213 767.848389,462.455872 767.842590,468.183624 
	C767.757935,552.345154 767.504883,636.508667 768.093201,720.666138 
	C768.180176,733.112671 764.467712,740.144226 753.711914,746.464050 
	C711.952454,771.001099 670.757080,796.500122 629.431702,821.771973 
	C622.628296,825.932495 616.457764,826.165039 609.505493,821.927551 
	C596.898499,814.243652 583.878845,807.239319 571.200134,799.668884 
	C567.829285,797.656128 565.524414,798.007141 562.276245,799.991516 
	C519.397400,826.186829 476.361206,852.124817 433.511627,878.367615 
	C427.170868,882.250977 421.719177,882.230652 415.465698,878.537048 
	C362.623505,847.325867 309.717773,816.222229 256.806671,785.127747 
	C239.930283,775.210022 223.044281,765.304932 206.027191,755.632324 
	C200.638168,752.569214 198.235199,748.395142 198.243469,742.297913 
	C198.303131,698.300659 198.329773,654.302979 198.198914,610.305969 
	C198.179428,603.754822 201.373856,599.953308 206.692657,596.891235 
	C233.853638,581.254578 260.915527,565.445740 288.067291,549.792969 
	C291.299500,547.929626 292.873871,545.966553 293.205780,541.821289 
	C294.054413,531.222961 300.730225,523.868530 309.303436,518.491943 
	C318.691010,512.604614 329.155060,509.534210 340.719727,508.919617 
M313.793274,681.696167 
	C282.347137,663.314758 250.900986,644.933350 219.422745,626.533203 
	C219.262894,626.894104 219.041824,627.160278 219.041656,627.426636 
	C219.018661,663.588135 218.982864,699.749695 219.116272,735.910645 
	C219.121292,737.272644 220.463394,739.130432 221.711288,739.904358 
	C228.891449,744.356873 236.235825,748.544189 243.516006,752.835815 
	C288.212036,779.183777 332.904785,805.537292 377.601013,831.884949 
	C389.555969,838.932068 401.519257,845.964966 414.157104,853.403748 
	C414.157104,851.142517 414.156677,849.715942 414.157196,848.289368 
	C414.169250,814.127563 414.127655,779.965454 414.272736,745.804260 
	C414.288025,742.205566 413.218048,740.228455 410.040649,738.370544 
	C378.111694,719.700623 346.296997,700.835327 313.793274,681.696167 
M588.947205,544.548218 
	C529.608276,509.930145 470.269318,475.312073 410.817474,440.628113 
	C410.817474,474.636078 410.786591,508.626923 410.924561,542.617065 
	C410.930389,544.052307 412.152161,546.070251 413.404327,546.820068 
	C423.639313,552.948853 433.974152,558.916138 444.395203,564.723389 
	C445.978424,565.605652 448.227753,565.889282 450.057922,565.638672 
	C466.995636,563.319336 482.450836,567.385315 496.242859,577.055176 
	C503.933014,582.446899 509.123169,589.841858 509.300629,599.990112 
	C509.335785,602.002319 510.924561,604.826233 512.644470,605.845032 
	C541.602722,622.998230 570.691406,639.931458 599.767151,656.886108 
	C601.809143,658.076782 603.976135,659.053284 606.061279,660.117310 
	C606.395142,659.476135 606.530273,659.337769 606.530457,659.199219 
	C606.578186,625.377136 606.646729,591.554932 606.549133,557.733215 
	C606.545105,556.327271 605.320312,554.413574 604.092651,553.612976 
	C599.373474,550.535278 594.421204,547.814819 588.947205,544.548218 
M534.934143,792.451111 
	C540.490784,789.146973 545.929932,785.619568 551.644165,782.615173 
	C555.635498,780.516663 557.097229,777.904541 557.067139,773.255005 
	C556.854126,740.286133 556.977539,707.315186 556.993652,674.344849 
	C556.994446,672.769714 556.993774,671.194519 556.993774,669.681580 
	C556.325806,669.636536 556.133484,669.560547 556.025574,669.625305 
	C516.820557,693.119934 477.632172,716.642395 438.397278,740.086975 
	C435.827057,741.622803 434.879211,743.367188 434.890411,746.428406 
	C435.015503,780.563843 434.971313,814.700012 434.972717,848.835938 
	C434.972778,850.252136 434.972748,851.668274 434.972748,853.822266 
	C468.580536,833.211426 501.461731,813.046143 534.934143,792.451111 
M627.168701,581.500000 
	C627.168701,609.217224 627.168701,636.934387 627.168701,664.935669 
	C628.130676,664.633057 628.621582,664.575073 629.008240,664.343201 
	C667.234863,641.418213 705.434631,618.448303 743.709778,595.604797 
	C746.653198,593.848022 747.678711,591.920410 747.664551,588.492554 
	C747.532288,556.517212 747.599609,524.541016 747.608826,492.565063 
	C747.609863,489.153595 747.609009,485.742126 747.609009,482.307770 
	C746.886353,482.353210 746.507751,482.264221 746.269348,482.407990 
	C707.380798,505.854645 668.488281,529.294861 629.684021,552.880249 
	C628.378235,553.673950 627.301636,555.917236 627.250793,557.520752 
	C627.008301,565.173706 627.157532,572.839050 627.168701,581.500000 
M627.196411,743.500000 
	C627.196411,761.898193 627.196411,780.296387 627.196411,799.313293 
	C628.371338,798.658447 628.906555,798.383911 629.418579,798.071411 
	C667.622803,774.746765 705.802795,751.382385 744.078857,728.176208 
	C746.599976,726.647644 747.429749,725.111206 747.429626,722.317261 
	C747.427917,689.340149 747.532654,656.363037 747.608398,623.385925 
	C747.612732,621.499146 747.608887,619.612366 747.608887,616.991760 
	C741.588501,620.621216 736.367493,623.795715 731.120911,626.927246 
	C698.096069,646.638672 665.090088,666.381958 632.000854,685.984619 
	C628.519409,688.046997 626.978455,690.230103 627.065552,694.531860 
	C627.388977,710.515564 627.195129,726.509766 627.196411,743.500000 
M328.290619,626.277771 
	C299.461761,618.898621 289.112640,599.575928 293.873535,569.864319 
	C271.291962,582.929138 250.169388,595.149902 228.612442,607.621887 
	C232.763168,609.958069 236.530762,611.994324 240.218231,614.166565 
	C299.929169,649.342285 359.676239,684.457397 419.255524,719.854858 
	C424.721069,723.102051 428.326721,723.328369 433.987671,719.787537 
	C460.977936,702.905762 488.411591,686.733398 515.670532,670.280518 
	C526.403564,663.802307 537.092468,657.250977 548.097534,650.552795 
	C535.026306,643.144653 522.398010,635.987549 509.050812,628.423035 
	C509.050812,634.913269 508.762573,640.536072 509.109985,646.119324 
	C509.865479,658.259827 504.036163,666.846924 494.503937,673.159546 
	C473.009399,687.394043 450.220520,688.212158 427.343506,677.413208 
	C412.592773,670.450195 404.181854,658.650879 404.890442,641.281677 
	C405.426666,628.138367 405.018372,614.955566 404.988129,601.790466 
	C404.973785,595.546814 407.153076,590.143982 411.080078,585.391907 
	C414.026001,581.827026 417.028564,578.308960 419.972382,574.809814 
	C413.229553,571.037170 405.369324,566.639221 397.007141,561.960510 
	C397.007141,571.182922 396.566101,579.683411 397.109467,588.120483 
	C397.945282,601.099243 391.535950,609.942566 381.775238,617.029663 
	C365.777496,628.645386 347.866180,630.216248 328.290619,626.277771 
M570.161377,509.336365 
	C584.051514,517.442261 598.039551,525.387512 611.768005,533.758545 
	C615.555359,536.067871 618.129089,536.146484 621.986145,533.743835 
	C642.526611,520.948303 663.289673,508.509583 683.999329,495.986359 
	C700.834656,485.805939 717.703308,475.680603 735.258484,465.108582 
	C722.375366,457.736847 710.129639,450.729828 697.076172,443.260620 
	C697.076172,450.400482 696.746521,456.531738 697.147644,462.614838 
	C697.887207,473.830139 692.452759,481.639038 683.939087,487.825653 
	C674.771606,494.487305 664.489990,498.169800 653.173889,499.370087 
	C636.188599,501.171600 620.480164,497.999481 606.534973,487.930389 
	C599.344727,482.738678 593.426453,476.042542 593.146912,466.788239 
	C592.634094,449.811035 592.987976,432.807190 593.027100,415.814575 
	C593.029724,414.682373 593.428223,413.551819 593.635681,412.419250 
	C595.106567,404.389069 600.471985,398.805450 606.367310,393.105225 
	C600.952271,390.120178 596.009766,387.395630 590.372742,384.288269 
	C590.372742,392.682983 590.250244,399.984253 590.405518,407.279633 
	C590.579102,415.438538 587.434753,422.112152 581.791809,427.754822 
	C562.128113,447.417816 524.598022,449.971924 501.791779,433.363953 
	C491.700226,426.015106 485.782928,416.836884 486.733124,403.819611 
	C487.198944,397.438354 486.813782,390.994965 486.813782,383.938171 
	C464.740997,396.850769 443.222351,409.439178 421.311279,422.257172 
	C471.158447,451.427795 520.336792,480.207001 570.161377,509.336365 
M606.665894,734.500000 
	C606.669006,719.504700 606.521118,704.506836 606.781860,689.515991 
	C606.846741,685.785034 605.544250,683.811340 602.455688,682.109619 
	C593.944031,677.420044 585.567261,672.485596 577.000244,667.569458 
	C577.000244,668.774780 577.000244,670.369385 577.000183,671.964050 
	C577.000122,704.287231 577.309570,736.615540 576.776245,768.929932 
	C576.647339,776.739624 578.471008,781.333191 585.810791,784.509644 
	C592.981567,787.612976 599.562012,792.080444 606.665161,796.098206 
	C606.665161,775.468201 606.665161,755.484131 606.665894,734.500000 
M487.880402,603.883667 
	C488.813812,598.368713 486.026550,594.784912 481.799652,591.819214 
	C475.148254,587.152405 467.509613,585.732361 459.707520,585.507019 
	C450.723236,585.247620 441.795898,586.216248 433.888336,591.088318 
	C424.697662,596.750916 424.536591,606.255798 433.468842,612.306458 
	C435.505798,613.686218 437.717651,614.937439 440.021606,615.770569 
	C448.785950,618.939880 457.956360,619.513794 466.921204,617.635803 
	C475.170532,615.907715 483.281067,613.030579 487.880402,603.883667 
M660.536560,431.140106 
	C663.218872,429.869629 666.084290,428.881195 668.551575,427.279541 
	C678.830750,420.606750 678.421265,411.826965 667.779663,405.772522 
	C657.679688,400.026215 646.800598,400.166992 635.849365,401.591370 
	C629.345093,402.437317 623.397339,405.041992 618.661682,409.804474 
	C613.704468,414.789825 613.647095,420.165283 618.584595,425.063568 
	C620.206909,426.673035 622.107971,428.155273 624.143982,429.168549 
	C635.681641,434.910675 647.627991,435.364136 660.536560,431.140106 
M329.530914,531.912292 
	C327.575867,532.800049 325.547943,533.557495 323.680298,534.601562 
	C319.242737,537.082397 314.947693,539.924988 315.073914,545.758911 
	C315.197449,551.468750 319.253723,554.785461 323.800934,556.951904 
	C338.081726,563.755798 352.518860,564.138794 366.701355,556.576172 
	C371.531403,554.000549 375.873291,550.268188 375.570557,544.353577 
	C375.269348,538.468872 370.647736,535.266052 365.590912,533.000122 
	C354.005463,527.808960 342.203033,527.711670 329.530914,531.912292 
M533.909363,345.047699 
	C527.919495,346.840210 521.614136,347.959229 516.013428,350.582520 
	C507.533234,354.554474 506.463470,363.286957 513.254944,369.683319 
	C522.895508,378.763092 534.839294,379.056519 546.922852,377.456360 
	C553.917908,376.530060 560.330994,373.674683 565.209229,368.225433 
	C569.299377,363.656525 569.392029,357.750854 565.004639,353.541046 
	C562.676208,351.306763 559.792480,348.926300 556.793274,348.260040 
	C549.587524,346.659363 542.165649,346.031525 533.909363,345.047699 
M676.882141,457.295471 
	C676.882141,453.575989 676.882141,449.856506 676.882141,445.506561 
	C666.681824,451.532043 656.479065,454.250458 645.460876,454.277588 
	C634.323303,454.305023 624.056702,451.284210 613.996338,445.459290 
	C613.996338,451.053101 614.252441,455.728790 613.927185,460.363678 
	C613.573364,465.405945 615.720337,468.954468 619.463196,471.903595 
	C632.132629,481.886200 656.145264,482.477356 669.145691,472.997803 
	C674.097046,469.387451 677.187439,464.648376 676.882141,457.295471 
M376.713135,589.787781 
	C376.713135,584.768555 376.713135,579.749268 376.713135,574.216003 
	C355.726807,585.955383 335.212189,585.968689 314.271149,574.791931 
	C314.271149,579.185303 314.448761,582.974854 314.234009,586.742004 
	C313.792969,594.479858 317.366882,599.661194 324.028778,603.106934 
	C336.588074,609.603210 349.513916,609.668518 362.458801,604.784607 
	C369.099884,602.278992 374.855682,598.323914 376.713135,589.787781 
M449.477753,663.061218 
	C460.173615,665.179260 470.269653,663.359314 479.677765,658.046143 
	C487.958252,653.369812 490.727325,643.833801 488.083008,630.192505 
	C467.610352,642.397339 447.015778,641.837036 426.005127,630.338135 
	C426.005127,633.572571 426.005157,636.354065 426.005157,639.135559 
	C426.005127,652.800598 428.816559,656.737183 441.926849,661.212463 
	C444.106842,661.956665 446.385132,662.412903 449.477753,663.061218 
M548.737671,422.483643 
	C570.573669,418.029114 570.415161,409.731049 568.172974,390.239502 
	C548.867371,401.763916 529.105408,401.093689 508.779633,391.613831 
	C508.779633,396.813904 509.161713,401.163971 508.694305,405.420715 
	C507.898376,412.669342 511.651337,416.405243 517.690857,419.081116 
	C527.420837,423.392212 537.586975,423.553894 548.737671,422.483643 
z" data-index="1" style="opacity: 1;"></path>
<path fill="#01C9FF" opacity="1.000000" stroke="none" d="
M724.071167,386.010406 
	C716.556091,384.735046 714.011719,381.761383 714.006714,374.524811 
	C713.987610,347.027710 713.998413,319.530640 713.998108,292.033539 
	C713.998108,290.227692 713.998169,288.421844 713.998169,286.290680 
	C712.257202,286.185028 710.817078,286.024689 709.376709,286.021820 
	C698.211243,285.999573 687.044434,285.907837 675.880798,286.049255 
	C670.439270,286.118195 666.388306,283.927216 664.310852,279.059387 
	C662.196777,274.105560 663.902832,269.703400 667.584656,265.935944 
	C680.510559,252.709518 693.386902,239.434631 706.310547,226.206009 
	C723.541809,208.568115 740.770935,190.927917 758.061951,173.348709 
	C764.070251,167.240265 770.844543,167.459976 776.685608,173.474884 
	C798.620117,196.062012 820.628540,218.577408 842.578552,241.149551 
	C850.823853,249.628494 858.956665,258.216766 867.198730,266.698883 
	C870.754028,270.357727 872.271362,274.530945 870.263733,279.355103 
	C868.241150,284.214966 864.155090,286.034821 859.053223,286.021698 
	C846.579041,285.989655 834.104675,286.011230 821.001892,286.011230 
	C821.001892,288.226776 821.001892,290.158539 821.001892,292.090302 
	C821.002808,349.917511 820.969055,407.744781 821.068970,465.571808 
	C821.077148,470.315399 819.128418,473.601471 815.305847,475.804474 
	C811.507141,477.993805 807.062866,477.917633 804.256470,474.793579 
	C801.981262,472.260864 800.195923,468.252472 800.175598,464.886658 
	C799.912476,421.226318 800.004700,377.563782 800.005981,333.901825 
	C800.006531,314.903870 799.995728,295.905945 800.006897,276.907990 
	C800.011353,269.344482 803.338501,266.017365 810.909851,265.997040 
	C819.015381,265.975281 827.121094,265.992126 836.311707,265.992126 
	C812.880554,241.739944 790.169983,218.233612 767.091919,194.346878 
	C743.958252,218.255997 721.202637,241.774338 697.763428,265.999207 
	C706.801331,265.999207 715.033630,265.977386 723.265808,266.005737 
	C730.492249,266.030640 733.995422,269.487762 733.998779,276.639679 
	C734.014160,309.469543 734.015076,342.299377 733.998657,375.129242 
	C733.995178,382.046722 731.265564,385.116119 724.071167,386.010406 
z" data-index="2" style="opacity: 1;"></path>

<path fill="#FEFEFF" opacity="1.000000" stroke="none" d="
M589.251526,544.754700 
	C594.421204,547.814819 599.373474,550.535278 604.092651,553.612976 
	C605.320312,554.413574 606.545105,556.327271 606.549133,557.733215 
	C606.646729,591.554932 606.578186,625.377136 606.530457,659.199219 
	C606.530273,659.337769 606.395142,659.476135 606.061279,660.117310 
	C603.976135,659.053284 601.809143,658.076782 599.767151,656.886108 
	C570.691406,639.931458 541.602722,622.998230 512.644470,605.845032 
	C510.924561,604.826233 509.335785,602.002319 509.300629,599.990112 
	C509.123169,589.841858 503.933014,582.446899 496.242859,577.055176 
	C482.450836,567.385315 466.995636,563.319336 450.057922,565.638672 
	C448.227753,565.889282 445.978424,565.605652 444.395203,564.723389 
	C433.974152,558.916138 423.639313,552.948853 413.404327,546.820068 
	C412.152161,546.070251 410.930389,544.052307 410.924561,542.617065 
	C410.786591,508.626923 410.817474,474.636078 410.817474,440.628113 
	C470.269318,475.312073 529.608276,509.930145 589.251526,544.754700 
z" data-index="4" style="opacity: 1; stroke-width: 2px; stroke: rgb(13, 153, 255); visibility: hidden;"></path>

<path fill="#FDFEFF" opacity="1.000000" stroke="none" d="
M627.168091,581.000000 
	C627.157532,572.839050 627.008301,565.173706 627.250793,557.520752 
	C627.301636,555.917236 628.378235,553.673950 629.684021,552.880249 
	C668.488281,529.294861 707.380798,505.854645 746.269348,482.407990 
	C746.507751,482.264221 746.886353,482.353210 747.609009,482.307770 
	C747.609009,485.742126 747.609863,489.153595 747.608826,492.565063 
	C747.599609,524.541016 747.532288,556.517212 747.664551,588.492554 
	C747.678711,591.920410 746.653198,593.848022 743.709778,595.604797 
	C705.434631,618.448303 667.234863,641.418213 629.008240,664.343201 
	C628.621582,664.575073 628.130676,664.633057 627.168701,664.935669 
	C627.168701,636.934387 627.168701,609.217224 627.168091,581.000000 
z" data-index="6" style="opacity: 1; stroke-width: 2px; stroke: rgb(13, 153, 255); visibility: hidden;"></path>

<path fill="#FDFEFF" opacity="1.000000" stroke="none" d="
M328.673645,626.445435 
	C347.866180,630.216248 365.777496,628.645386 381.775238,617.029663 
	C391.535950,609.942566 397.945282,601.099243 397.109467,588.120483 
	C396.566101,579.683411 397.007141,571.182922 397.007141,561.960510 
	C405.369324,566.639221 413.229553,571.037170 419.972382,574.809814 
	C417.028564,578.308960 414.026001,581.827026 411.080078,585.391907 
	C407.153076,590.143982 404.973785,595.546814 404.988129,601.790466 
	C405.018372,614.955566 405.426666,628.138367 404.890442,641.281677 
	C404.181854,658.650879 412.592773,670.450195 427.343506,677.413208 
	C450.220520,688.212158 473.009399,687.394043 494.503937,673.159546 
	C504.036163,666.846924 509.865479,658.259827 509.109985,646.119324 
	C508.762573,640.536072 509.050812,634.913269 509.050812,628.423035 
	C522.398010,635.987549 535.026306,643.144653 548.097534,650.552795 
	C537.092468,657.250977 526.403564,663.802307 515.670532,670.280518 
	C488.411591,686.733398 460.977936,702.905762 433.987671,719.787537 
	C428.326721,723.328369 424.721069,723.102051 419.255524,719.854858 
	C359.676239,684.457397 299.929169,649.342285 240.218231,614.166565 
	C236.530762,611.994324 232.763168,609.958069 228.612442,607.621887 
	C250.169388,595.149902 271.291962,582.929138 293.873535,569.864319 
	C289.112640,599.575928 299.461761,618.898621 328.673645,626.445435 
z" data-index="8" style="opacity: 1; visibility: hidden;"></path>

<path fill="#FAFEFF" opacity="1.000000" stroke="none" d="
M606.665527,735.000000 
	C606.665161,755.484131 606.665161,775.468201 606.665161,796.098206 
	C599.562012,792.080444 592.981567,787.612976 585.810791,784.509644 
	C578.471008,781.333191 576.647339,776.739624 576.776245,768.929932 
	C577.309570,736.615540 577.000122,704.287231 577.000183,671.964050 
	C577.000244,670.369385 577.000244,668.774780 577.000244,667.569458 
	C585.567261,672.485596 593.944031,677.420044 602.455688,682.109619 
	C605.544250,683.811340 606.846741,685.785034 606.781860,689.515991 
	C606.521118,704.506836 606.669006,719.504700 606.665527,735.000000 
z" data-index="10" style="opacity: 1; visibility: hidden;"></path>

<path fill="#FDFEFF" opacity="1.000000" stroke="none" d="
M660.181824,431.325439 
	C647.627991,435.364136 635.681641,434.910675 624.143982,429.168549 
	C622.107971,428.155273 620.206909,426.673035 618.584595,425.063568 
	C613.647095,420.165283 613.704468,414.789825 618.661682,409.804474 
	C623.397339,405.041992 629.345093,402.437317 635.849365,401.591370 
	C646.800598,400.166992 657.679688,400.026215 667.779663,405.772522 
	C678.421265,411.826965 678.830750,420.606750 668.551575,427.279541 
	C666.084290,428.881195 663.218872,429.869629 660.181824,431.325439 
z" data-index="12" style="opacity: 1; stroke-width: 2px; stroke: rgb(13, 153, 255); visibility: hidden;"></path>

<path fill="#FDFEFF" opacity="1.000000" stroke="none" d="
M534.370117,345.029419 
	C542.165649,346.031525 549.587524,346.659363 556.793274,348.260040 
	C559.792480,348.926300 562.676208,351.306763 565.004639,353.541046 
	C569.392029,357.750854 569.299377,363.656525 565.209229,368.225433 
	C560.330994,373.674683 553.917908,376.530060 546.922852,377.456360 
	C534.839294,379.056519 522.895508,378.763092 513.254944,369.683319 
	C506.463470,363.286957 507.533234,354.554474 516.013428,350.582520 
	C521.614136,347.959229 527.919495,346.840210 534.370117,345.029419 
z" data-index="14" style="opacity: 1; stroke-width: 2px; stroke: rgb(13, 153, 255); visibility: hidden;"></path>
<path fill="#FCFEFF" opacity="1.000000" stroke="none" d="
M676.888428,457.754700 
	C677.187439,464.648376 674.097046,469.387451 669.145691,472.997803 
	C656.145264,482.477356 632.132629,481.886200 619.463196,471.903595 
	C615.720337,468.954468 613.573364,465.405945 613.927185,460.363678 
	C614.252441,455.728790 613.996338,451.053101 613.996338,445.459290 
	C624.056702,451.284210 634.323303,454.305023 645.460876,454.277588 
	C656.479065,454.250458 666.681824,451.532043 676.882141,445.506561 
	C676.882141,449.856506 676.882141,453.575989 676.888428,457.754700 
z" data-index="15" style="opacity: 1;"></path>

<path fill="#FCFEFF" opacity="1.000000" stroke="none" d="
M449.047852,663.031738 
	C446.385132,662.412903 444.106842,661.956665 441.926849,661.212463 
	C428.816559,656.737183 426.005127,652.800598 426.005157,639.135559 
	C426.005157,636.354065 426.005127,633.572571 426.005127,630.338135 
	C447.015778,641.837036 467.610352,642.397339 488.083008,630.192505 
	C490.727325,643.833801 487.958252,653.369812 479.677765,658.046143 
	C470.269653,663.359314 460.173615,665.179260 449.047852,663.031738 
z" data-index="17" style="opacity: 1; stroke-width: 2px; stroke: rgb(13, 153, 255); visibility: hidden;"></path>

</svg>